<?xml version="1.0" encoding="UTF-8" standalone="no"?>
<!-- Created with Inkscape (http://www.inkscape.org/) -->

<svg
   xmlns:dc="http://purl.org/dc/elements/1.1/"
   xmlns:cc="http://creativecommons.org/ns#"
   xmlns:rdf="http://www.w3.org/1999/02/22-rdf-syntax-ns#"
   xmlns:svg="http://www.w3.org/2000/svg"
   xmlns="http://www.w3.org/2000/svg"
   xmlns:xlink="http://www.w3.org/1999/xlink"
   xmlns:sodipodi="http://sodipodi.sourceforge.net/DTD/sodipodi-0.dtd"
   xmlns:inkscape="http://www.inkscape.org/namespaces/inkscape"
   version="1.1"
   id="svg2"
   xml:space="preserve"
   width="210mm"
   height="297mm"
   viewBox="0 0 793.70082 1122.5197"
   sodipodi:docname="Flat Ribbon Collection.svg"
   inkscape:version="0.92.2 (5c3e80d, 2017-08-06)"><metadata
     id="metadata8"><rdf:RDF><cc:Work
         rdf:about=""><dc:format>image/svg+xml</dc:format><dc:type
           rdf:resource="http://purl.org/dc/dcmitype/StillImage" /><dc:title></dc:title></cc:Work></rdf:RDF></metadata><defs
     id="defs6"><clipPath
       clipPathUnits="userSpaceOnUse"
       id="clipPath20"><path
         d="M 0,1000 H 1000 V 0 H 0 Z"
         id="path18"
         inkscape:connector-curvature="0" /></clipPath><linearGradient
       inkscape:collect="always"
       xlink:href="#linearGradient4668"
       id="linearGradient4670"
       x1="163.70958"
       y1="109.86743"
       x2="592.71332"
       y2="728.43158"
       gradientUnits="userSpaceOnUse" /><linearGradient
       inkscape:collect="always"
       id="linearGradient4668"><stop
         style="stop-color:#000000;stop-opacity:1;"
         offset="0"
         id="stop4664" /><stop
         style="stop-color:#000000;stop-opacity:0;"
         offset="1"
         id="stop4666" /></linearGradient><filter
       inkscape:collect="always"
       style="color-interpolation-filters:sRGB"
       id="filter4336"
       x="-0.024"
       width="1.048"
       y="-0.024"
       height="1.048"><feGaussianBlur
         inkscape:collect="always"
         stdDeviation="0.93212418"
         id="feGaussianBlur4338" /></filter><radialGradient
       inkscape:collect="always"
       xlink:href="#linearGradient4209"
       id="radialGradient4211"
       cx="-32.05299"
       cy="146.45094"
       fx="-32.05299"
       fy="146.45094"
       r="46.606209"
       gradientUnits="userSpaceOnUse"
       gradientTransform="matrix(1.2393788,0.04213487,-0.06570323,1.7984419,156.90935,-152.84427)" /><linearGradient
       inkscape:collect="always"
       id="linearGradient4209"><stop
         style="stop-color:#ffffff;stop-opacity:0.484"
         offset="0"
         id="stop4205" /><stop
         style="stop-color:#858585;stop-opacity:0.46666667"
         offset="1"
         id="stop4207" /></linearGradient><radialGradient
       inkscape:collect="always"
       xlink:href="#linearGradient4221"
       id="radialGradient4215"
       gradientUnits="userSpaceOnUse"
       cx="-37.346699"
       cy="172.92258"
       fx="-37.346699"
       fy="172.92258"
       r="46.606209"
       gradientTransform="matrix(1.2401481,0,0,1.1963204,147.31173,-66.382751)" /><linearGradient
       id="linearGradient4221"
       inkscape:collect="always"><stop
         id="stop4217"
         offset="0"
         style="stop-color:#ffffff;stop-opacity:1" /><stop
         id="stop4219"
         offset="1"
         style="stop-color:#858585;stop-opacity:0" /></linearGradient><filter
       inkscape:collect="always"
       style="color-interpolation-filters:sRGB"
       id="filter6008"
       x="-0.019372094"
       width="1.0387442"
       y="-0.25413546"
       height="1.5082709"><feGaussianBlur
         inkscape:collect="always"
         stdDeviation="0.90904814"
         id="feGaussianBlur6010" /></filter><filter
       inkscape:collect="always"
       style="color-interpolation-filters:sRGB"
       id="filter4237"
       x="-0.019804848"
       width="1.0396097"
       y="-0.030450068"
       height="1.0609001"><feGaussianBlur
         inkscape:collect="always"
         stdDeviation="1.0222286"
         id="feGaussianBlur4239" /></filter><linearGradient
       inkscape:collect="always"
       xlink:href="#linearGradient7348"
       id="linearGradient4208"
       x1="-128.02173"
       y1="18.475914"
       x2="-101.21726"
       y2="45.588665"
       gradientUnits="userSpaceOnUse"
       gradientTransform="matrix(1.2371134,0,0,1.208763,204.18898,23.880825)" /><linearGradient
       inkscape:collect="always"
       id="linearGradient7348"><stop
         style="stop-color:#ffffff;stop-opacity:1;"
         offset="0"
         id="stop7344" /><stop
         style="stop-color:#ffffff;stop-opacity:0;"
         offset="1"
         id="stop7346" /></linearGradient><radialGradient
       inkscape:collect="always"
       xlink:href="#linearGradient7569"
       id="radialGradient6843"
       gradientUnits="userSpaceOnUse"
       gradientTransform="matrix(5.4271826,3.1333853,2.2782769,-3.9460907,-610.54045,677.93393)"
       cx="105"
       cy="148.5"
       fx="105"
       fy="148.5"
       r="105" /><linearGradient
       inkscape:collect="always"
       id="linearGradient7569"><stop
         style="stop-color:#ffffff;stop-opacity:1"
         offset="0"
         id="stop7565" /><stop
         style="stop-color:#ccc6cc;stop-opacity:1"
         offset="1"
         id="stop7567" /></linearGradient></defs><sodipodi:namedview
     pagecolor="#ffffff"
     bordercolor="#666666"
     borderopacity="1"
     objecttolerance="10"
     gridtolerance="10"
     guidetolerance="10"
     inkscape:pageopacity="0"
     inkscape:pageshadow="2"
     inkscape:window-width="1366"
     inkscape:window-height="706"
     id="namedview4"
     showgrid="false"
     inkscape:zoom="0.25575481"
     inkscape:cx="240.52389"
     inkscape:cy="409.19891"
     inkscape:window-x="-8"
     inkscape:window-y="-8"
     inkscape:window-maximized="1"
     inkscape:current-layer="g10"
     units="mm"
     inkscape:snap-page="true"
     inkscape:snap-global="false" /><g
     id="g10"
     inkscape:groupmode="layer"
     inkscape:label="Flat Ribbon Collection"
     transform="matrix(1.3333333,0,0,-1.3333333,0,1122.5197)"><path
       id="path6789"
       d="M 0,841.88982 H 595.27557 V 2.3836539e-5 H 0 Z"
       style="opacity:1;fill:url(#radialGradient6843);fill-opacity:1;fill-rule:nonzero;stroke:none;stroke-width:7.5;stroke-linecap:round;stroke-linejoin:miter;stroke-miterlimit:4;stroke-dasharray:none;stroke-dashoffset:0;stroke-opacity:1;paint-order:stroke fill markers"
       inkscape:connector-curvature="0" /><rect
       y="-103.25359"
       x="-3.9277344e-005"
       height="51.101566"
       width="595.27563"
       id="rect6791"
       style="opacity:1;fill:#1a1a1a;fill-opacity:1;fill-rule:nonzero;stroke:none;stroke-width:0.08220476;stroke-linecap:round;stroke-linejoin:round;stroke-miterlimit:4;stroke-dasharray:none;stroke-dashoffset:0;stroke-opacity:1;paint-order:markers stroke fill"
       transform="scale(1,-1)" /><g
       id="g6837"
       style="font-style:normal;font-variant:normal;font-weight:normal;font-stretch:normal;font-size:19.75555611px;line-height:1.25;font-family:Aldhabi;-inkscape-font-specification:'Aldhabi, Normal';font-variant-ligatures:normal;font-variant-caps:normal;font-variant-numeric:normal;font-feature-settings:normal;text-align:start;letter-spacing:0px;word-spacing:0px;writing-mode:lr-tb;text-anchor:start;fill:#ffffff;fill-opacity:1;stroke:none;stroke-width:0.26405746"
       aria-label="Designed by JLS DESIGN"
       transform="matrix(2.8402909,0,0,-2.8402909,-4.34236,895.71912)"><path
         id="path6793"
         style="font-style:normal;font-variant:normal;font-weight:normal;font-stretch:normal;font-size:19.75555611px;font-family:Aldhabi;-inkscape-font-specification:'Aldhabi, Normal';font-variant-ligatures:normal;font-variant-caps:normal;font-variant-numeric:normal;font-feature-settings:normal;text-align:start;writing-mode:lr-tb;text-anchor:start;fill:#ffffff;stroke-width:0.26405746"
         d="m 40.541229,283.2775 q 0.487136,-0.0965 0.96945,-0.1688 0.482313,-0.0723 0.930864,-0.11576 0.453375,-0.0482 0.858518,-0.0675 0.405144,-0.0241 0.73794,-0.0241 1.114144,0 1.948546,0.24116 0.839225,0.24115 1.393886,0.69935 0.559483,0.4582 0.839225,1.12379 0.279742,0.66559 0.279742,1.50964 0,0.50161 -0.106109,1.02251 -0.101286,0.51607 -0.32315,0.99839 -0.221865,0.47749 -0.578776,0.90192 -0.352089,0.41961 -0.853695,0.73794 -0.501606,0.3135 -1.162375,0.49678 -0.655947,0.17846 -1.490349,0.17846 -0.226687,0 -0.438905,-0.0145 -0.207395,-0.01 -0.424436,-0.0241 -0.221864,-0.0145 -0.463021,-0.0289 -0.236333,-0.01 -0.516075,-0.01 -0.284565,0 -0.56913,0.01 -0.284565,0.0145 -0.516075,0.0289 -0.23151,0.0145 -0.381028,0.0289 -0.149517,0.01 -0.163986,0.01 0,-0.0434 0.01447,-0.12058 0.01929,-0.082 0.110932,-0.16881 0.09646,-0.0868 0.299035,-0.15916 0.207394,-0.0723 0.588422,-0.10129 0.01929,-0.21704 0.02894,-0.5209 0.01447,-0.30868 0.01929,-0.67041 0.0096,-0.36656 0.0096,-0.76688 v -4.01285 q 0,-0.22668 -0.0048,-0.39067 0,-0.16881 -0.0048,-0.30386 l -0.578776,0.0868 q -0.289388,0.0434 -0.578776,0.0965 z m 3.028928,0.15435 q -0.327973,0 -0.72347,0.0289 -0.0096,0.24116 -0.01447,0.55466 -0.0048,0.30868 -0.0048,0.74277 v 2.34886 q 0,0.74759 0,1.24437 0.0048,0.49678 0.0048,0.80547 0.0048,0.30385 0.0096,0.44855 0.0096,0.14469 0.02412,0.19292 0.01447,0.15434 0.08682,0.2508 0.07717,0.0916 0.202571,0.1447 0.130225,0.0482 0.303858,0.0627 0.173633,0.0145 0.38585,0.0145 0.704178,0 1.220253,-0.12058 0.516076,-0.1254 0.877811,-0.33762 0.361735,-0.21704 0.583599,-0.51125 0.226687,-0.29421 0.352089,-0.63665 0.125401,-0.34245 0.168809,-0.71865 0.04341,-0.38103 0.04341,-0.76206 0,-0.99839 -0.236333,-1.70739 -0.236334,-0.71382 -0.689708,-1.16719 -0.448552,-0.45338 -1.104498,-0.6656 -0.655946,-0.21221 -1.490348,-0.21221 z"
         inkscape:connector-curvature="0" /><path
         id="path6795"
         style="font-style:normal;font-variant:normal;font-weight:normal;font-stretch:normal;font-size:19.75555611px;font-family:Aldhabi;-inkscape-font-specification:'Aldhabi, Normal';font-variant-ligatures:normal;font-variant-caps:normal;font-variant-numeric:normal;font-feature-settings:normal;text-align:start;writing-mode:lr-tb;text-anchor:start;fill:#ffffff;stroke-width:0.26405746"
         d="m 50.650518,287.9463 q 0.01929,0.55948 0.159163,0.95498 0.144694,0.39067 0.390674,0.64148 0.250803,0.24598 0.593245,0.36173 0.347266,0.11576 0.766879,0.11576 0.168809,0 0.327973,-0.0193 0.159163,-0.0193 0.32315,-0.0675 0.168809,-0.0482 0.352089,-0.1254 0.188102,-0.0772 0.414789,-0.19293 l 0.192925,0.31833 q -1.196137,0.96463 -2.40192,0.96463 -0.424436,0 -0.839226,-0.13023 -0.414789,-0.13022 -0.742762,-0.42443 -0.327973,-0.29904 -0.530545,-0.77653 -0.202572,-0.48231 -0.202572,-1.18167 0,-0.78134 0.250803,-1.36012 0.255627,-0.57878 0.665593,-0.9598 0.414789,-0.38585 0.935688,-0.57396 0.520898,-0.1881 1.056266,-0.1881 0.467844,0 0.786171,0.13505 0.32315,0.13505 0.516075,0.36656 0.192926,0.22668 0.274919,0.53054 0.08682,0.30386 0.08682,0.64148 0,0.21704 -0.03376,0.42443 -0.02894,0.20258 -0.08199,0.40997 z m 2.141471,-0.5209 q 0.02412,-0.0965 0.02894,-0.18328 0.0096,-0.0916 0.0096,-0.15916 0,-0.24598 -0.05788,-0.46302 -0.05788,-0.21704 -0.18328,-0.37621 -0.120578,-0.15916 -0.30868,-0.2508 -0.183279,-0.0916 -0.443728,-0.0916 -0.226688,0 -0.438906,0.082 -0.207394,0.0772 -0.371381,0.26528 -0.163986,0.1881 -0.270095,0.49678 -0.101286,0.30868 -0.115756,0.76688 z"
         inkscape:connector-curvature="0" /><path
         id="path6797"
         style="font-style:normal;font-variant:normal;font-weight:normal;font-stretch:normal;font-size:19.75555611px;font-family:Aldhabi;-inkscape-font-specification:'Aldhabi, Normal';font-variant-ligatures:normal;font-variant-caps:normal;font-variant-numeric:normal;font-feature-settings:normal;text-align:start;writing-mode:lr-tb;text-anchor:start;fill:#ffffff;stroke-width:0.26405746"
         d="m 55.521883,288.99774 q 0.03376,0.38103 0.173633,0.6463 0.139871,0.26045 0.342443,0.42926 0.202571,0.16399 0.443728,0.24116 0.241157,0.0723 0.482313,0.0723 0.192926,0 0.352089,-0.0434 0.163987,-0.0482 0.279742,-0.13505 0.115755,-0.0868 0.178456,-0.21222 0.0627,-0.13022 0.0627,-0.29903 0,-0.2074 -0.09646,-0.35692 -0.09646,-0.15434 -0.265272,-0.27491 -0.163987,-0.12541 -0.385851,-0.22669 -0.221864,-0.10611 -0.467844,-0.21704 -0.294211,-0.12058 -0.583599,-0.25563 -0.289388,-0.13505 -0.520899,-0.3135 -0.23151,-0.18328 -0.376204,-0.42926 -0.139871,-0.2508 -0.139871,-0.60772 0,-0.39067 0.173633,-0.70417 0.178456,-0.31833 0.472667,-0.54019 0.299034,-0.22669 0.689708,-0.34727 0.395497,-0.12058 0.834402,-0.12058 0.366558,0 0.665593,0.0868 0.303857,0.082 0.516075,0.22186 0.217041,0.13987 0.332796,0.32315 0.115755,0.17846 0.115755,0.37138 0,0.13987 -0.05788,0.24116 -0.05788,0.0965 -0.154341,0.15916 -0.09646,0.0627 -0.221864,0.0916 -0.120578,0.0289 -0.250803,0.0289 -0.04823,0 -0.110932,-0.005 -0.0627,-0.005 -0.110932,-0.0145 -0.125401,-0.46785 -0.381027,-0.71865 -0.255626,-0.25562 -0.689708,-0.25562 -0.381028,0 -0.602892,0.18327 -0.217041,0.17846 -0.217041,0.49196 0,0.20258 0.09646,0.35692 0.09646,0.15434 0.270096,0.27974 0.173633,0.1254 0.419613,0.24115 0.245979,0.11094 0.545014,0.23152 0.284565,0.1254 0.569129,0.26527 0.284565,0.13505 0.511253,0.32315 0.226687,0.18328 0.366558,0.43408 0.144694,0.2508 0.144694,0.59807 0,0.37138 -0.163987,0.67524 -0.163986,0.30385 -0.467844,0.52572 -0.299034,0.21704 -0.72347,0.33762 -0.424436,0.12058 -0.940511,0.12058 -0.274918,0 -0.549837,-0.0386 -0.274919,-0.0386 -0.496783,-0.12058 -0.217041,-0.082 -0.352089,-0.21704 -0.135047,-0.13505 -0.135047,-0.32797 0,-0.0241 0,-0.0965 0.0048,-0.0723 0.01447,-0.21222 0.0048,-0.13987 0.01447,-0.35209 0.0096,-0.21222 0.02894,-0.51608 z"
         inkscape:connector-curvature="0" /><path
         id="path6799"
         style="font-style:normal;font-variant:normal;font-weight:normal;font-stretch:normal;font-size:19.75555611px;font-family:Aldhabi;-inkscape-font-specification:'Aldhabi, Normal';font-variant-ligatures:normal;font-variant-caps:normal;font-variant-numeric:normal;font-feature-settings:normal;text-align:start;writing-mode:lr-tb;text-anchor:start;fill:#ffffff;stroke-width:0.26405746"
         d="m 61.796781,285.3611 q -0.02894,0.34726 -0.04823,0.709 -0.01447,0.35691 -0.02411,0.76205 -0.0096,0.40032 -0.01447,0.86817 0,0.46302 0,1.0225 v 0.32315 q 0,0.17364 0,0.34245 0.0048,0.16881 0.0096,0.3135 0.0048,0.13987 0.01447,0.22186 0.0048,0.1254 0.02412,0.19775 0.02412,0.0723 0.110932,0.12058 0.09164,0.0434 0.270095,0.0723 0.183279,0.0289 0.506429,0.0627 l -0.173633,0.40514 q -0.03859,-0.005 -0.163986,-0.0145 -0.125402,-0.01 -0.308681,-0.0193 -0.178456,-0.005 -0.40032,-0.01 -0.217041,-0.005 -0.448551,-0.005 -0.284565,0 -0.535368,0.01 -0.250803,0.01 -0.438905,0.0193 -0.188102,0.01 -0.308681,0.0193 -0.120578,0.0145 -0.144694,0.0193 0,-0.0338 0.0096,-0.10611 0.01447,-0.0772 0.08682,-0.15916 0.07235,-0.082 0.226687,-0.15916 0.159164,-0.0772 0.448552,-0.11576 0.01929,-0.17845 0.02894,-0.39067 0.0096,-0.21704 0.01447,-0.41961 0.0048,-0.2074 0.0048,-0.38103 v -0.26527 q 0,-0.56431 -0.0048,-0.95981 -0.0048,-0.39549 -0.0096,-0.66077 -0.0048,-0.26527 -0.01447,-0.41961 -0.0048,-0.15434 -0.0096,-0.22669 -0.0096,-0.15916 -0.03376,-0.24598 -0.02412,-0.0868 -0.110932,-0.13022 -0.08682,-0.0434 -0.255626,-0.0482 -0.16881,-0.01 -0.467844,-0.01 l 0.09646,-0.3955 q 0.332797,-0.0338 0.641477,-0.0868 0.313504,-0.0531 0.573953,-0.11093 0.260449,-0.0579 0.458198,-0.11094 0.202571,-0.0579 0.313504,-0.0965 z m -0.221864,-2.3344 v 0.11576 q 0,0.23151 0.05305,0.42443 0.05788,0.19293 0.226687,0.36656 -0.125401,0.20257 -0.347265,0.30386 -0.221864,0.10128 -0.453375,0.10128 -0.139871,0 -0.270095,-0.0386 -0.130225,-0.0434 -0.231511,-0.1254 -0.101286,-0.0868 -0.163986,-0.21704 -0.05788,-0.13023 -0.05788,-0.31351 0,-0.10128 0.01929,-0.22668 0.02412,-0.13023 0.06752,-0.24598 l 1.13826,-0.17364 z"
         inkscape:connector-curvature="0" /><path
         id="path6801"
         style="font-style:normal;font-variant:normal;font-weight:normal;font-stretch:normal;font-size:19.75555611px;font-family:Aldhabi;-inkscape-font-specification:'Aldhabi, Normal';font-variant-ligatures:normal;font-variant-caps:normal;font-variant-numeric:normal;font-feature-settings:normal;text-align:start;writing-mode:lr-tb;text-anchor:start;fill:#ffffff;stroke-width:0.26405746"
         d="m 65.554002,285.32251 q 0.226687,0 0.434082,0.0338 0.207395,0.0338 0.467844,0.0723 0.260449,0.0386 0.607715,0.0723 0.352089,0.0338 0.863341,0.0338 h 0.289388 q 0.135047,0 0.303857,-0.01 l -0.163986,0.55948 q -0.163987,0.0145 -0.284565,0.0193 -0.115755,0 -0.159164,0 -0.135047,0 -0.274918,-0.005 -0.135048,-0.005 -0.361735,-0.0338 l -0.01929,0.0289 q 0.202572,0.33279 0.294211,0.66076 0.09164,0.32798 0.09164,0.63183 0,0.43409 -0.16881,0.81511 -0.163986,0.37621 -0.467844,0.65595 -0.299034,0.27974 -0.718647,0.44373 -0.419612,0.15916 -0.921218,0.15916 -0.352089,0 -0.655947,-0.0868 -0.13987,0.13987 -0.212217,0.24115 -0.06752,0.10129 -0.06752,0.19775 0,0.11093 0.09164,0.17846 0.09164,0.0675 0.255626,0.11093 0.16881,0.0386 0.40032,0.0627 0.236334,0.0193 0.516076,0.0386 0.294211,0.0193 0.602891,0.0434 0.313504,0.0241 0.607715,0.082 0.299035,0.053 0.564307,0.14951 0.265272,0.0916 0.463021,0.25563 0.202571,0.15916 0.318327,0.3955 0.115755,0.24115 0.115755,0.57877 0,0.33762 -0.120578,0.65595 -0.120579,0.31833 -0.33762,0.59324 -0.212218,0.27975 -0.516075,0.50643 -0.299034,0.23151 -0.665593,0.3955 -0.361735,0.16399 -0.776524,0.25563 -0.409967,0.0916 -0.853695,0.0916 -0.506429,0 -0.916395,-0.12058 -0.409967,-0.11576 -0.699355,-0.32315 -0.289388,-0.20257 -0.448551,-0.48232 -0.15434,-0.27491 -0.15434,-0.59324 0,-0.39067 0.245979,-0.78135 0.250803,-0.38585 0.776525,-0.77652 -0.274919,-0.082 -0.419613,-0.2074 -0.139871,-0.12058 -0.139871,-0.33762 0,-0.13022 0.05788,-0.27009 0.05788,-0.1447 0.173633,-0.30386 0.120578,-0.16399 0.303857,-0.35209 0.183279,-0.19292 0.429259,-0.41961 -0.506429,-0.24598 -0.762055,-0.709 -0.250803,-0.46785 -0.250803,-1.05627 0,-0.55466 0.202572,-0.9598 0.202571,-0.40515 0.520898,-0.67042 0.32315,-0.26527 0.728293,-0.39067 0.405144,-0.13023 0.810287,-0.13023 z m -1.239546,5.89387 q -0.217041,0.26045 -0.303857,0.53537 -0.08199,0.27492 -0.08199,0.48231 0,0.28939 0.130224,0.53055 0.135048,0.24116 0.371382,0.41479 0.236333,0.17363 0.564306,0.26527 0.332797,0.0965 0.733117,0.0965 0.434082,0 0.742762,-0.11093 0.313504,-0.10611 0.516076,-0.28456 0.202571,-0.17364 0.299034,-0.40032 0.09646,-0.22669 0.09646,-0.4582 0,-0.27492 -0.130225,-0.45338 -0.125402,-0.17363 -0.347266,-0.27491 -0.217041,-0.10129 -0.516075,-0.14952 -0.299034,-0.0482 -0.641477,-0.0772 -0.337619,-0.0241 -0.704177,-0.0434 -0.366558,-0.0241 -0.728294,-0.0723 z m 2.247581,-3.49195 q 0,-0.29903 -0.06752,-0.62218 -0.0627,-0.32797 -0.212218,-0.59807 -0.144694,-0.27009 -0.390674,-0.44373 -0.241156,-0.17845 -0.598068,-0.17845 -0.265273,0 -0.443729,0.10128 -0.178456,0.10129 -0.284565,0.2701 -0.106109,0.16881 -0.149517,0.38585 -0.04341,0.21704 -0.04341,0.44855 0,0.29903 0.06752,0.62218 0.07235,0.32315 0.226687,0.59325 0.154341,0.26527 0.40032,0.43891 0.24598,0.16881 0.602892,0.16881 0.260449,0 0.434082,-0.0965 0.173633,-0.10128 0.274919,-0.26527 0.101286,-0.16399 0.139871,-0.3762 0.04341,-0.21705 0.04341,-0.44856 z"
         inkscape:connector-curvature="0" /><path
         id="path6803"
         style="font-style:normal;font-variant:normal;font-weight:normal;font-stretch:normal;font-size:19.75555611px;font-family:Aldhabi;-inkscape-font-specification:'Aldhabi, Normal';font-variant-ligatures:normal;font-variant-caps:normal;font-variant-numeric:normal;font-feature-settings:normal;text-align:start;writing-mode:lr-tb;text-anchor:start;fill:#ffffff;stroke-width:0.26405746"
         d="m 70.92215,285.35145 q -0.01447,0.18328 -0.02894,0.43408 -0.0096,0.24598 -0.0096,0.57878 l 0.02894,0.01 q 0.226688,-0.21222 0.463021,-0.40515 0.236334,-0.19292 0.49196,-0.34244 0.260449,-0.14952 0.540191,-0.23633 0.284565,-0.0868 0.602892,-0.0868 0.434082,0 0.728293,0.16881 0.294211,0.16881 0.472667,0.46784 0.178456,0.29422 0.250803,0.69936 0.07717,0.40032 0.07717,0.87299 0,0.17363 -0.0096,0.38585 -0.0096,0.21222 -0.02412,0.4389 -0.0096,0.22187 -0.02412,0.44855 -0.01447,0.22669 -0.02894,0.42444 -0.0096,0.19775 -0.01929,0.36173 -0.0096,0.15917 -0.0096,0.25563 0,0.14469 0.02894,0.23633 0.03376,0.0916 0.135047,0.14952 0.101286,0.0579 0.294212,0.0965 0.197748,0.0338 0.525721,0.0675 l -0.173633,0.40514 q -0.03858,-0.005 -0.168809,-0.0145 -0.125402,-0.01 -0.313504,-0.0193 -0.188102,-0.005 -0.424436,-0.01 -0.23151,-0.005 -0.487136,-0.005 -0.202572,0 -0.376205,0.005 -0.173633,0.005 -0.313503,0.0145 0.04823,-0.42443 0.08199,-0.78135 0.03376,-0.36173 0.05305,-0.6897 0.01929,-0.32798 0.02894,-0.6463 0.0096,-0.31833 0.0096,-0.66077 0,-0.31833 -0.02412,-0.63183 -0.01929,-0.31351 -0.120579,-0.55949 -0.09646,-0.24598 -0.299034,-0.40032 -0.202572,-0.15434 -0.56913,-0.15434 -0.202571,0 -0.395497,0.0482 -0.192925,0.0482 -0.371381,0.13505 -0.173633,0.0868 -0.332796,0.20257 -0.154341,0.11094 -0.289388,0.24116 -0.0096,0.17363 -0.0096,0.35691 -0.0048,0.1881 -0.0048,0.36174 -0.0048,0.17363 -0.0048,0.32315 v 0.91157 q 0,0.27974 0.0048,0.48231 0.0048,0.20257 0.0096,0.35209 0.0048,0.14952 0.01447,0.27974 0.0048,0.12058 0.02412,0.19775 0.02412,0.0723 0.110932,0.12058 0.08682,0.0434 0.265272,0.0723 0.183279,0.0289 0.506429,0.0627 l -0.173633,0.40514 q -0.03858,-0.005 -0.168809,-0.0145 -0.125402,-0.01 -0.308681,-0.0193 -0.183279,-0.005 -0.409966,-0.01 -0.226688,-0.005 -0.458198,-0.005 -0.289388,0 -0.540191,0.01 -0.24598,0.01 -0.434082,0.0193 -0.188102,0.01 -0.303857,0.0193 -0.110933,0.0145 -0.135048,0.0193 0,-0.0338 0.0096,-0.10611 0.01447,-0.0772 0.08682,-0.15916 0.07235,-0.082 0.226688,-0.15916 0.159163,-0.0772 0.448551,-0.11576 0.01929,-0.1881 0.02894,-0.41479 0.0096,-0.23151 0.01447,-0.44855 0.0048,-0.22186 0.0048,-0.40032 v -0.26045 q 0,-0.5209 -0.0048,-0.8971 -0.0048,-0.38103 -0.0096,-0.64148 -0.0048,-0.26527 -0.01447,-0.42443 -0.0048,-0.15917 -0.0096,-0.24598 -0.0096,-0.15917 -0.03376,-0.24116 -0.02412,-0.0868 -0.110933,-0.1254 -0.08682,-0.0434 -0.260449,-0.0482 -0.168809,-0.01 -0.472667,-0.01 l 0.09646,-0.3955 q 0.327973,-0.0338 0.627007,-0.0868 0.303858,-0.0531 0.554661,-0.11093 0.250803,-0.0579 0.443728,-0.11094 0.192925,-0.0579 0.303857,-0.0965 z"
         inkscape:connector-curvature="0" /><path
         id="path6805"
         style="font-style:normal;font-variant:normal;font-weight:normal;font-stretch:normal;font-size:19.75555611px;font-family:Aldhabi;-inkscape-font-specification:'Aldhabi, Normal';font-variant-ligatures:normal;font-variant-caps:normal;font-variant-numeric:normal;font-feature-settings:normal;text-align:start;writing-mode:lr-tb;text-anchor:start;fill:#ffffff;stroke-width:0.26405746"
         d="m 77.197045,287.9463 q 0.01929,0.55948 0.159163,0.95498 0.144694,0.39067 0.390674,0.64148 0.250803,0.24598 0.593245,0.36173 0.347266,0.11576 0.766879,0.11576 0.168809,0 0.327973,-0.0193 0.159163,-0.0193 0.32315,-0.0675 0.168809,-0.0482 0.352088,-0.1254 0.188103,-0.0772 0.41479,-0.19293 l 0.192925,0.31833 q -1.196137,0.96463 -2.40192,0.96463 -0.424436,0 -0.839226,-0.13023 -0.414789,-0.13022 -0.742762,-0.42443 -0.327973,-0.29904 -0.530545,-0.77653 -0.202572,-0.48231 -0.202572,-1.18167 0,-0.78134 0.250803,-1.36012 0.255626,-0.57878 0.665593,-0.9598 0.414789,-0.38585 0.935688,-0.57396 0.520898,-0.1881 1.056266,-0.1881 0.467844,0 0.786171,0.13505 0.32315,0.13505 0.516075,0.36656 0.192926,0.22668 0.274919,0.53054 0.08682,0.30386 0.08682,0.64148 0,0.21704 -0.03376,0.42443 -0.02894,0.20258 -0.08199,0.40997 z m 2.141471,-0.5209 q 0.02412,-0.0965 0.02894,-0.18328 0.0096,-0.0916 0.0096,-0.15916 0,-0.24598 -0.05788,-0.46302 -0.05788,-0.21704 -0.183279,-0.37621 -0.120578,-0.15916 -0.30868,-0.2508 -0.183279,-0.0916 -0.443728,-0.0916 -0.226688,0 -0.438906,0.082 -0.207394,0.0772 -0.371381,0.26528 -0.163987,0.1881 -0.270095,0.49678 -0.101286,0.30868 -0.115756,0.76688 z"
         inkscape:connector-curvature="0" /><path
         id="path6807"
         style="font-style:normal;font-variant:normal;font-weight:normal;font-stretch:normal;font-size:19.75555611px;font-family:Aldhabi;-inkscape-font-specification:'Aldhabi, Normal';font-variant-ligatures:normal;font-variant-caps:normal;font-variant-numeric:normal;font-feature-settings:normal;text-align:start;writing-mode:lr-tb;text-anchor:start;fill:#ffffff;stroke-width:0.26405746"
         d="m 85.444607,289.93343 q -0.241157,0.23633 -0.467844,0.41961 -0.221864,0.17846 -0.453375,0.29904 -0.226687,0.12057 -0.472667,0.18328 -0.24598,0.0627 -0.525721,0.0627 -0.501606,0 -0.89228,-0.18328 -0.385851,-0.18328 -0.655946,-0.51125 -0.265273,-0.3328 -0.405144,-0.791 -0.139871,-0.4582 -0.139871,-1.00321 0,-0.75241 0.250803,-1.33119 0.250803,-0.57877 0.675239,-0.97427 0.424436,-0.3955 0.983919,-0.59807 0.564307,-0.20257 1.181668,-0.20257 0.467844,0 0.940511,0.11576 -0.0096,-0.47749 -0.0096,-0.83923 -0.0048,-0.35691 -0.0096,-0.63665 0,-0.28457 -0.0048,-0.51125 0,-0.23152 -0.0048,-0.44856 -0.0048,-0.16398 -0.02894,-0.25562 -0.02412,-0.0916 -0.130225,-0.13505 -0.101286,-0.0434 -0.32315,-0.0482 -0.217041,-0.01 -0.607715,-0.01 l 0.09646,-0.39549 q 0.371381,-0.0193 0.713824,-0.0579 0.347265,-0.0434 0.63183,-0.0916 0.289388,-0.0482 0.501606,-0.0965 0.212218,-0.0531 0.32315,-0.0916 l 0.09646,0.0675 q -0.02412,0.28456 -0.03858,0.74276 -0.0096,0.4582 -0.01929,1.02733 -0.0048,0.56431 -0.0096,1.21543 0,0.65112 0,1.32154 v 2.3344 q 0,0.39067 0,0.64147 0.0048,0.24598 0.0096,0.37621 0.0048,0.1254 0.0096,0.19292 0.0096,0.15917 0.03376,0.26045 0.02894,0.10129 0.07717,0.15916 0.04823,0.0579 0.115755,0.082 0.07235,0.0193 0.16881,0.0193 0.274918,0 0.636653,-0.14469 l 0.115755,0.30868 q -0.178456,0.10611 -0.40032,0.19775 -0.221864,0.0868 -0.448551,0.14951 -0.221864,0.0675 -0.429259,0.10611 -0.207395,0.0386 -0.356912,0.0386 -0.361735,0 -0.520898,-0.2074 -0.159164,-0.21222 -0.159164,-0.57395 v -0.17363 z m 0.0096,-0.48231 q 0,-0.35209 0.0048,-0.74759 0,-0.39067 0,-0.81029 0,-0.41479 0.0048,-0.84887 0,-0.43408 0,-0.86334 -0.168809,-0.10611 -0.347265,-0.16881 -0.178456,-0.0627 -0.342443,-0.0965 -0.159163,-0.0338 -0.299034,-0.0434 -0.135048,-0.01 -0.221864,-0.01 -0.463021,0 -0.776525,0.17364 -0.30868,0.16881 -0.496783,0.45337 -0.188102,0.27974 -0.270095,0.65113 -0.08199,0.36655 -0.08199,0.76205 0,0.55466 0.135047,0.95498 0.135048,0.40032 0.361735,0.66077 0.226688,0.25563 0.520899,0.38103 0.294211,0.12058 0.617361,0.12058 0.347266,0 0.6463,-0.13987 0.299034,-0.13988 0.545014,-0.42926 z"
         inkscape:connector-curvature="0" /><path
         id="path6809"
         style="font-style:normal;font-variant:normal;font-weight:normal;font-stretch:normal;font-size:19.75555611px;font-family:Aldhabi;-inkscape-font-specification:'Aldhabi, Normal';font-variant-ligatures:normal;font-variant-caps:normal;font-variant-numeric:normal;font-feature-settings:normal;text-align:start;writing-mode:lr-tb;text-anchor:start;fill:#ffffff;stroke-width:0.26405746"
         d="m 87.750061,290.73407 q 0,0 0,0 z"
         inkscape:connector-curvature="0" /><path
         id="path6811"
         style="font-style:normal;font-variant:normal;font-weight:normal;font-stretch:normal;font-size:19.75555611px;font-family:Aldhabi;-inkscape-font-specification:'Aldhabi, Normal';font-variant-ligatures:normal;font-variant-caps:normal;font-variant-numeric:normal;font-feature-settings:normal;text-align:start;writing-mode:lr-tb;text-anchor:start;fill:#ffffff;stroke-width:0.26405746"
         d="m 92.602136,286.27749 q 0.188103,-0.18327 0.405144,-0.35691 0.221864,-0.17845 0.467844,-0.3135 0.250803,-0.13987 0.530544,-0.22187 0.284565,-0.082 0.602892,-0.082 0.472667,0 0.848872,0.1881 0.381027,0.18811 0.6463,0.51608 0.265272,0.32315 0.405143,0.76688 0.144694,0.4389 0.144694,0.94051 0,0.41479 -0.09646,0.81511 -0.09646,0.39549 -0.284565,0.74758 -0.188102,0.35209 -0.463021,0.65113 -0.270095,0.29903 -0.622184,0.51607 -0.352089,0.21222 -0.776524,0.3328 -0.424436,0.12058 -0.916396,0.12058 -0.101286,0 -0.265272,-0.01 -0.159164,-0.01 -0.361735,-0.0386 -0.202572,-0.0289 -0.443729,-0.0868 -0.236333,-0.0579 -0.487136,-0.15434 -0.115755,0.0434 -0.270096,0.11575 -0.15434,0.0723 -0.299034,0.17364 l -0.07717,-0.0386 q 0.03858,-0.41961 0.05788,-0.91157 0.02411,-0.49196 0.03376,-1.02733 0.01447,-0.53537 0.01929,-1.09485 0.0048,-0.56431 0.0048,-1.12379 0,-0.64148 -0.0048,-1.24437 0,-0.60771 -0.0048,-1.1045 -0.0048,-0.5016 -0.01447,-0.86334 -0.0048,-0.36173 -0.0096,-0.5209 -0.0048,-0.16398 -0.02894,-0.2508 -0.02412,-0.0916 -0.120578,-0.13022 -0.09164,-0.0386 -0.279742,-0.0434 -0.188102,-0.01 -0.520898,-0.01 l 0.09646,-0.39549 q 0.32315,-0.0193 0.636653,-0.0579 0.318327,-0.0434 0.588423,-0.0916 0.274918,-0.0482 0.487136,-0.0965 0.212218,-0.0531 0.32315,-0.0916 l 0.09646,0.0675 q -0.01929,0.28456 -0.03376,0.63665 -0.0096,0.34727 -0.01929,0.73312 -0.0096,0.38585 -0.01447,0.79582 -0.0048,0.40514 -0.0096,0.80064 0,0.39067 0,0.76205 v 0.67042 z m -0.01929,1.01286 q 0,0.89711 0,1.56752 0.0048,0.67042 0.02894,1.18167 0.159163,0.10128 0.327973,0.16399 0.173633,0.0579 0.327973,0.0868 0.15434,0.0289 0.284565,0.0386 0.130224,0.01 0.207394,0.01 0.477491,0 0.800641,-0.18328 0.327973,-0.18328 0.525721,-0.47749 0.197749,-0.29903 0.284565,-0.67041 0.08682,-0.37621 0.08682,-0.76206 0,-0.39067 -0.08682,-0.75723 -0.08682,-0.37138 -0.270095,-0.65595 -0.183279,-0.28456 -0.477491,-0.45819 -0.289388,-0.17364 -0.699354,-0.17364 -0.409966,0 -0.737939,0.16399 -0.327974,0.15916 -0.602892,0.40514 z"
         inkscape:connector-curvature="0" /><path
         id="path6813"
         style="font-style:normal;font-variant:normal;font-weight:normal;font-stretch:normal;font-size:19.75555611px;font-family:Aldhabi;-inkscape-font-specification:'Aldhabi, Normal';font-variant-ligatures:normal;font-variant-caps:normal;font-variant-numeric:normal;font-feature-settings:normal;text-align:start;writing-mode:lr-tb;text-anchor:start;fill:#ffffff;stroke-width:0.26405746"
         d="m 100.79182,285.53473 q 0.0338,0.005 0.15434,0.01 0.12058,0.005 0.28456,0.01 0.16399,0.005 0.35209,0.01 0.1881,0 0.35209,0 0.62701,0 0.95498,-0.0289 0.32797,-0.0289 0.40997,-0.0386 0,0.10611 -0.0482,0.19774 -0.0434,0.0868 -0.15434,0.15917 -0.10611,0.0723 -0.28939,0.1254 -0.18328,0.0482 -0.45338,0.0772 -0.24115,0.63665 -0.46784,1.25884 -0.22187,0.62218 -0.43408,1.21543 -0.21222,0.59324 -0.41962,1.1479 -0.20257,0.55466 -0.40514,1.05627 -0.30868,0.76688 -0.62701,1.40353 -0.318324,0.64148 -0.670412,1.09968 -0.347266,0.45819 -0.742763,0.71382 -0.390674,0.25563 -0.844049,0.25563 -0.405143,0 -0.627007,-0.19293 -0.221864,-0.19292 -0.221864,-0.54984 0,-0.0868 0.01929,-0.19774 0.01447,-0.10611 0.05788,-0.21705 0.188102,0.0531 0.361735,0.0723 0.173633,0.0241 0.32315,0.0241 0.482313,0 0.834402,-0.18328 0.356912,-0.17846 0.631831,-0.50161 0.279742,-0.32315 0.496783,-0.76688 0.221864,-0.4389 0.438904,-0.9598 h -0.01 q -0.0241,0 -0.06752,0.005 -0.04341,0.005 -0.09646,0.01 -0.05788,0.005 -0.110932,0.0145 -0.05788,0.005 -0.101286,0.01 -0.159163,-0.45337 -0.332796,-0.92121 -0.16881,-0.46785 -0.33762,-0.9164 -0.168809,-0.44855 -0.332796,-0.85852 -0.159163,-0.40996 -0.299034,-0.74276 -0.135048,-0.33762 -0.24598,-0.5836 -0.110932,-0.2508 -0.178456,-0.3762 -0.08199,-0.13505 -0.163986,-0.21704 -0.08199,-0.082 -0.197749,-0.12541 -0.110932,-0.0482 -0.270095,-0.0723 -0.159164,-0.0241 -0.390674,-0.0482 l 0.115755,-0.41479 q 0.03376,0.005 0.149517,0.0145 0.115755,0.005 0.289388,0.01 0.173633,0.005 0.390674,0.01 0.221864,0.005 0.458198,0.005 0.217041,0 0.356912,-0.005 0.144694,-0.005 0.245979,-0.0145 0.120579,0.29903 0.299035,0.72829 0.173633,0.43408 0.376204,0.95981 0.207395,0.52089 0.429262,1.11414 0.22668,0.59325 0.44855,1.22025 h 0.0386 q 0.10129,-0.26045 0.21222,-0.5643 0.11575,-0.30868 0.22669,-0.62701 0.11575,-0.31833 0.21704,-0.62701 0.10611,-0.3135 0.18328,-0.58842 0.082,-0.27492 0.1254,-0.49196 0.0482,-0.22186 0.0482,-0.35209 0,-0.0965 -0.0338,-0.15434 -0.0338,-0.0579 -0.13023,-0.0916 -0.0916,-0.0386 -0.26045,-0.0579 -0.16881,-0.0193 -0.43408,-0.0434 z m -2.995169,0.37621 z m 4.610919,0.11575 z m -0.67042,-0.0868 z"
         inkscape:connector-curvature="0" /><path
         id="path6815"
         style="font-style:normal;font-variant:normal;font-weight:normal;font-stretch:normal;font-size:19.75555611px;font-family:Aldhabi;-inkscape-font-specification:'Aldhabi, Normal';font-variant-ligatures:normal;font-variant-caps:normal;font-variant-numeric:normal;font-feature-settings:normal;text-align:start;writing-mode:lr-tb;text-anchor:start;fill:#ffffff;stroke-width:0.26405746"
         d="m 103.10692,290.73407 q 0,0 0,0 z"
         inkscape:connector-curvature="0" /><path
         id="path6817"
         style="font-style:normal;font-variant:normal;font-weight:normal;font-stretch:normal;font-size:19.75555611px;font-family:Aldhabi;-inkscape-font-specification:'Aldhabi, Normal';font-variant-ligatures:normal;font-variant-caps:normal;font-variant-numeric:normal;font-feature-settings:normal;text-align:start;writing-mode:lr-tb;text-anchor:start;fill:#ffffff;stroke-width:0.26405746"
         d="m 107.168,286.50418 q 0,-0.44373 -0.005,-0.77652 0,-0.3328 -0.005,-0.5836 0,-0.25081 -0.005,-0.42926 0,-0.17846 -0.005,-0.31833 -0.005,-0.13987 -0.01,-0.2508 l -0.01,-0.22187 q -0.01,-0.13504 -0.0338,-0.21221 -0.0241,-0.0772 -0.13023,-0.12058 -0.10611,-0.0434 -0.32315,-0.0675 -0.21704,-0.0289 -0.61254,-0.0627 l 0.16399,-0.42443 q 0.0434,0.01 0.21222,0.0193 0.16881,0.01 0.40032,0.0193 0.23633,0.01 0.5016,0.0145 0.2701,0.005 0.50643,0.005 0.38103,0 0.69936,-0.0145 0.31832,-0.0145 0.54984,-0.0289 0.23151,-0.0145 0.36173,-0.0289 0.13022,-0.0145 0.14469,-0.0145 0,0.0579 -0.0241,0.14469 -0.0193,0.082 -0.13023,0.16881 -0.10611,0.0868 -0.33279,0.15917 -0.22187,0.0723 -0.62219,0.10611 -0.0338,0.50642 -0.0434,1.00803 -0.005,0.49678 -0.005,0.94533 0,0.72347 0.005,1.25884 0.005,0.53055 0.01,0.92122 0.005,0.39068 0.01,0.65595 0.005,0.27009 0.005,0.4582 0,0.68006 -0.0675,1.20096 -0.0675,0.51607 -0.2074,0.91639 -0.13505,0.40032 -0.34244,0.70418 -0.20257,0.30868 -0.47749,0.56431 -0.27492,0.25562 -0.61736,0.48231 -0.34244,0.22669 -0.75723,0.47267 l -0.27975,-0.3955 q 0.2701,-0.19293 0.48714,-0.38103 0.21704,-0.18328 0.38103,-0.40514 0.16399,-0.21704 0.27974,-0.48714 0.12058,-0.27009 0.19293,-0.63665 0.0772,-0.36174 0.11093,-0.8344 0.0338,-0.47749 0.0338,-1.1045 0,-0.29904 -0.005,-0.88746 -0.005,-0.59324 -0.005,-1.53858 z"
         inkscape:connector-curvature="0" /><path
         id="path6819"
         style="font-style:normal;font-variant:normal;font-weight:normal;font-stretch:normal;font-size:19.75555611px;font-family:Aldhabi;-inkscape-font-specification:'Aldhabi, Normal';font-variant-ligatures:normal;font-variant-caps:normal;font-variant-numeric:normal;font-feature-settings:normal;text-align:start;writing-mode:lr-tb;text-anchor:start;fill:#ffffff;stroke-width:0.26405746"
         d="m 112.44451,286.82251 v 2.03536 q 0,0.38103 0.005,0.62701 0.005,0.24115 0.0145,0.33279 0.01,0.13988 0.0531,0.22187 0.0482,0.0772 0.15916,0.12058 0.11093,0.0386 0.29903,0.053 0.19293,0.01 0.49679,0.01 0.4389,0 0.76205,-0.0193 0.32797,-0.0241 0.56913,-0.0868 0.24598,-0.0627 0.41961,-0.17846 0.17846,-0.11575 0.32315,-0.30385 0.1447,-0.18811 0.27492,-0.4582 0.13023,-0.27492 0.27974,-0.65113 l 0.43409,0.0965 q -0.11576,0.5209 -0.20258,0.88745 -0.0868,0.36174 -0.15916,0.60772 -0.0724,0.24116 -0.13987,0.38585 -0.0675,0.13987 -0.14952,0.21222 -0.0772,0.0675 -0.17845,0.0868 -0.0965,0.0193 -0.23151,0.0193 -0.10611,0 -0.32798,-0.01 -0.22186,-0.005 -0.51607,-0.0145 -0.29421,-0.01 -0.6463,-0.0193 -0.34727,-0.01 -0.70418,-0.0193 -0.35691,-0.01 -0.709,-0.0193 -0.34727,-0.005 -0.6463,-0.005 -0.8537,0 -1.2926,0.0386 -0.44373,0.0386 -0.54019,0.0386 0,-0.0434 0.0145,-0.12058 0.0193,-0.082 0.11575,-0.16881 0.0965,-0.0868 0.30868,-0.15916 0.21222,-0.0723 0.6029,-0.10129 0.0193,-0.20257 0.0289,-0.51125 0.0145,-0.30868 0.0193,-0.66077 0.01,-0.35209 0.01,-0.71865 v -2.0016 q 0,-0.54983 -0.005,-0.93568 0,-0.39068 -0.005,-0.63666 -0.005,-0.2508 -0.01,-0.41479 -0.005,-0.16398 -0.01,-0.26527 -0.005,-0.10129 -0.01,-0.19293 -0.01,-0.13504 -0.0338,-0.21221 -0.0193,-0.0772 -0.12058,-0.12058 -0.10129,-0.0434 -0.31833,-0.0675 -0.21222,-0.0289 -0.60771,-0.0627 l 0.16398,-0.42443 q 0.0434,0.01 0.2074,0.0193 0.16881,0.01 0.39549,0.0193 0.23151,0.01 0.49679,0.0145 0.26527,0.005 0.5016,0.005 0.38103,0 0.69936,-0.0145 0.31832,-0.0145 0.54983,-0.0289 0.23152,-0.0145 0.36174,-0.0289 0.13022,-0.0145 0.14469,-0.0145 0,0.0579 -0.0193,0.14469 -0.0193,0.082 -0.1254,0.16881 -0.10129,0.0868 -0.32315,0.15917 -0.22186,0.0723 -0.62218,0.10611 -0.0193,0.27491 -0.0338,0.56913 -0.01,0.29421 -0.0145,0.67041 -0.005,0.37621 -0.01,0.86334 0,0.48232 0,1.13344 z"
         inkscape:connector-curvature="0" /><path
         id="path6821"
         style="font-style:normal;font-variant:normal;font-weight:normal;font-stretch:normal;font-size:19.75555611px;font-family:Aldhabi;-inkscape-font-specification:'Aldhabi, Normal';font-variant-ligatures:normal;font-variant-caps:normal;font-variant-numeric:normal;font-feature-settings:normal;text-align:start;writing-mode:lr-tb;text-anchor:start;fill:#ffffff;stroke-width:0.26405746"
         d="m 117.78371,288.4479 q 0.0482,0.53055 0.24116,0.89228 0.19775,0.35692 0.47749,0.57396 0.27974,0.21704 0.61736,0.3135 0.33762,0.0916 0.67042,0.0916 0.29421,0 0.54501,-0.0675 0.25563,-0.0675 0.43408,-0.20258 0.18328,-0.13987 0.28457,-0.34244 0.10611,-0.20739 0.10611,-0.48713 0,-0.3328 -0.1447,-0.57396 -0.14469,-0.24598 -0.39067,-0.44373 -0.24598,-0.19774 -0.57395,-0.36655 -0.32798,-0.16881 -0.69453,-0.35209 -0.25081,-0.12058 -0.50161,-0.25081 -0.24598,-0.13022 -0.47267,-0.27974 -0.22668,-0.14951 -0.42443,-0.32315 -0.19293,-0.17363 -0.33762,-0.38585 -0.1447,-0.21222 -0.22669,-0.46302 -0.082,-0.25562 -0.082,-0.55948 0,-0.51608 0.22668,-0.94051 0.23151,-0.42926 0.62701,-0.73312 0.3955,-0.30868 0.92604,-0.47749 0.53537,-0.16881 1.13826,-0.16881 0.3955,0 0.79582,0.0675 0.40514,0.0675 0.71382,0.16399 0.0627,0.0241 0.10129,0.0434 0.0386,0.0193 0.0579,0.0482 0.0193,0.0289 0.0241,0.0724 0.01,0.0434 0.01,0.11575 v 0.62701 q 0,0.24116 0.005,0.51125 0.005,0.2701 0.0145,0.49196 l -0.42443,0.0386 q -0.10129,-0.80064 -0.53055,-1.18649 -0.42926,-0.38585 -1.17684,-0.38585 -0.28939,0 -0.54502,0.0627 -0.2508,0.0579 -0.4389,0.19292 -0.18811,0.13505 -0.29904,0.34727 -0.10611,0.20739 -0.10611,0.5016 0,0.3328 0.13505,0.5836 0.13987,0.24598 0.37621,0.44855 0.23633,0.20258 0.55466,0.37621 0.31832,0.16881 0.68006,0.34244 0.40514,0.19775 0.80064,0.40514 0.3955,0.2074 0.709,0.47267 0.3135,0.26045 0.50643,0.60289 0.19292,0.34245 0.19292,0.80547 0,0.35208 -0.11575,0.65594 -0.11576,0.29904 -0.32315,0.54984 -0.20257,0.24598 -0.48232,0.44373 -0.27974,0.19292 -0.61253,0.32797 -0.32798,0.13023 -0.69936,0.19775 -0.36656,0.0723 -0.74758,0.0723 -0.34245,0 -0.71383,-0.0531 -0.37138,-0.0531 -0.68006,-0.13987 -0.30386,-0.0916 -0.5016,-0.21222 -0.19775,-0.12058 -0.19775,-0.2508 v -0.0145 q 0,-0.0145 0.005,-0.0724 0,-0.053 0.005,-0.16398 0,-0.10611 0.005,-0.29904 0.005,-0.19775 0.0145,-0.49196 0.01,-0.29421 0.0193,-0.71382 z"
         inkscape:connector-curvature="0" /><path
         id="path6823"
         style="font-style:normal;font-variant:normal;font-weight:normal;font-stretch:normal;font-size:19.75555611px;font-family:Aldhabi;-inkscape-font-specification:'Aldhabi, Normal';font-variant-ligatures:normal;font-variant-caps:normal;font-variant-numeric:normal;font-feature-settings:normal;text-align:start;writing-mode:lr-tb;text-anchor:start;fill:#ffffff;stroke-width:0.26405746"
         d="m 122.82389,290.73407 q 0,0 0,0 z"
         inkscape:connector-curvature="0" /></g><g
       transform="matrix(0.43789029,0,0,-0.43789029,415.56171,142.72955)"
       id="g8196"
       style="stroke-width:6.47341537"><g
         id="g7866"
         style="stroke-width:6.47341537"><g
           id="g4236"
           transform="matrix(1.0970648,0,0,1.0970648,-7.3740553,30.418608)"
           style="stroke-width:5.90066671"
           inkscape:export-xdpi="300"
           inkscape:export-ydpi="300"><g
             id="g4198"
             style="stroke-width:5.90066671"><circle
               style="opacity:1;fill:#c83737;fill-opacity:1;fill-rule:nonzero;stroke:none;stroke-width:1.56121826;stroke-linecap:round;stroke-linejoin:round;stroke-miterlimit:4;stroke-dasharray:6.24487329, 12.48974661;stroke-dashoffset:0;stroke-opacity:1;paint-order:stroke fill markers"
               id="path3839"
               cx="102.43156"
               cy="107.63393"
               r="93.61953" /><path
               style="opacity:1;fill:url(#linearGradient4670);fill-opacity:1;fill-rule:nonzero;stroke:none;stroke-width:5.90066671;stroke-linecap:round;stroke-linejoin:round;stroke-miterlimit:4;stroke-dasharray:23.6026698, 47.20533954;stroke-dashoffset:0;stroke-opacity:1;paint-order:stroke fill markers"
               d="m 523.17773,201.32617 c -148.7143,57.97668 -274.11974,115.99654 -366.17968,295.06641 -22.44362,5.16266 -45.83899,8.73806 -65.501956,18.53515 l 35.774836,36.79759 -49.013118,8.90749 165.091798,169.17969 c 45.24289,20.23367 94.23178,30.73718 143.79297,30.83008 195.41934,1.7e-4 353.83806,-158.41855 353.83789,-353.83789 -0.14669,-13.77354 -1.09753,-27.52677 -2.84766,-41.18946 l -81.37695,-81.06445 c -19.55176,-7.5847 -39.10449,-12.63987 -58.65625,-10.84375 L 580.7207,258.9707 Z"
               transform="scale(0.26458333)"
               id="rect3841"
               inkscape:connector-curvature="0"
               sodipodi:nodetypes="ccccccccccccc" /><path
               inkscape:connector-curvature="0"
               id="circle4322"
               d="m 359.38282,229.72023 a 46.606209,46.606209 0 0 1 -46.60621,46.60621 46.606209,46.606209 0 0 1 -46.60621,-46.60621 46.606209,46.606209 0 0 1 46.60621,-46.60621 46.606209,46.606209 0 0 1 46.60621,46.60621 z"
               style="display:inline;opacity:1;fill:#000000;fill-opacity:1;fill-rule:nonzero;stroke:none;stroke-width:0.12817499;stroke-linecap:round;stroke-linejoin:miter;stroke-miterlimit:4;stroke-dasharray:none;stroke-dashoffset:0;stroke-opacity:1;paint-order:markers stroke fill;filter:url(#filter4336)"
               transform="matrix(1.2401481,0,0,1.1963204,-284.97919,-167.56306)" /><path
               inkscape:connector-curvature="0"
               id="circle4288"
               d="M 160.70864,107.25588 A 57.798607,55.755963 0 0 1 102.91009,163.01191 57.798607,55.755963 0 0 1 45.111532,107.25588 57.798607,55.755963 0 0 1 102.91009,51.499984 57.798607,55.755963 0 0 1 160.70864,107.25588 Z"
               style="display:inline;opacity:1;fill:#ffd5d5;fill-opacity:1;fill-rule:nonzero;stroke:none;stroke-width:0.15612151;stroke-linecap:round;stroke-linejoin:miter;stroke-miterlimit:4;stroke-dasharray:none;stroke-dashoffset:0;stroke-opacity:1;paint-order:markers stroke fill" /><path
               inkscape:connector-curvature="0"
               id="path4169"
               d="M 160.70864,107.62516 A 57.798607,55.755963 0 0 1 102.91009,163.38118 57.798607,55.755963 0 0 1 45.111532,107.62516 57.798607,55.755963 0 0 1 102.91009,51.869256 57.798607,55.755963 0 0 1 160.70864,107.62516 Z"
               style="display:inline;opacity:1;fill:url(#radialGradient4211);fill-opacity:1;fill-rule:nonzero;stroke:none;stroke-width:0.15612151;stroke-linecap:round;stroke-linejoin:miter;stroke-miterlimit:4;stroke-dasharray:none;stroke-dashoffset:0;stroke-opacity:1;paint-order:markers stroke fill" /><path
               inkscape:connector-curvature="0"
               id="circle4213"
               d="M 160.70864,107.25588 A 57.798607,55.755963 0 0 1 102.91009,163.01191 57.798607,55.755963 0 0 1 45.111532,107.25588 57.798607,55.755963 0 0 1 102.91009,51.499984 57.798607,55.755963 0 0 1 160.70864,107.25588 Z"
               style="display:inline;opacity:1;fill:url(#radialGradient4215);fill-opacity:1;fill-rule:nonzero;stroke:none;stroke-width:0.15612151;stroke-linecap:round;stroke-linejoin:miter;stroke-miterlimit:4;stroke-dasharray:none;stroke-dashoffset:0;stroke-opacity:1;paint-order:markers stroke fill" /><path
               style="display:inline;opacity:0.55400002;fill:#ffffff;fill-opacity:1;fill-rule:nonzero;stroke:none;stroke-width:0.15612151;stroke-linecap:round;stroke-linejoin:miter;stroke-miterlimit:4;stroke-dasharray:none;stroke-dashoffset:0;stroke-opacity:1;paint-order:markers stroke fill"
               d="m 47.791857,90.887159 c -1.771738,5.415082 -2.675489,11.059591 -2.680071,16.738121 1.27e-4,30.79288 25.877231,55.75552 57.798304,55.75565 28.44606,-0.0387 52.63734,-20.03012 57.03238,-47.14137 -7.57465,23.21759 -29.88677,32.68164 -55.11886,32.68744 -31.920948,-1.3e-4 -57.798051,-18.63217 -57.798178,-49.425048 0.02545,-2.886377 0.279996,-5.766697 0.76617,-8.614793 z"
               id="circle4198"
               inkscape:connector-curvature="0"
               sodipodi:nodetypes="ccccccc" /><path
               id="path4203"
               d="M 64.169714,117.22532 A 41.312472,39.85246 0 0 1 62.25416,105.26143 41.312472,39.85246 0 0 1 103.5663,65.409217 41.312472,39.85246 0 0 1 144.33117,99.104324 41.312472,39.85246 0 0 0 104.9342,71.215483 41.312472,39.85246 0 0 0 63.62194,111.0677 a 41.312472,39.85246 0 0 0 0.547265,6.15762 z"
               style="display:inline;opacity:0.59200003;fill:#ffffff;fill-opacity:1;fill-rule:nonzero;stroke:none;stroke-width:0.11159061;stroke-linecap:round;stroke-linejoin:miter;stroke-miterlimit:4;stroke-dasharray:none;stroke-dashoffset:0;stroke-opacity:1;paint-order:markers stroke fill"
               inkscape:connector-curvature="0" /><path
               style="display:inline;opacity:1;fill:#ffffff;fill-opacity:1;fill-rule:nonzero;stroke:none;stroke-width:0.1523594;stroke-linecap:round;stroke-linejoin:miter;stroke-miterlimit:4;stroke-dasharray:none;stroke-dashoffset:0;stroke-opacity:1;paint-order:markers stroke fill"
               d="m 102.87051,52.415365 a 56.405776,54.412357 0 0 0 -56.405452,54.412605 56.405776,54.412357 0 0 0 3.840781,19.73277 56.405776,54.412357 0 0 1 -3.200354,-17.87933 56.405776,54.412357 0 0 1 56.405445,-54.412597 56.405776,54.412357 0 0 1 52.5648,34.679315 56.405776,54.412357 0 0 0 -53.20522,-36.532763 z"
               id="circle4245-6"
               inkscape:connector-curvature="0" /><path
               sodipodi:nodetypes="cccccc"
               inkscape:connector-curvature="0"
               id="path4266"
               d="m 49.760611,87.721863 c -1.771739,5.415082 -2.675489,11.05959 -2.680071,16.738127 1.27e-4,30.79287 23.908477,55.75551 55.82955,55.75564 28.44606,-0.0387 52.63734,-20.02999 57.03238,-47.14137 -4.91507,25.27017 -29.1864,46.51625 -55.11886,45.98161 -44.686984,0.31192 -63.686876,-38.55506 -55.062999,-71.334007 z"
               style="display:inline;opacity:0.55400002;fill:#c5c5c5;fill-opacity:0.46666667;fill-rule:nonzero;stroke:none;stroke-width:0.15612151;stroke-linecap:round;stroke-linejoin:miter;stroke-miterlimit:4;stroke-dasharray:none;stroke-dashoffset:0;stroke-opacity:1;paint-order:markers stroke fill" /><path
               inkscape:connector-curvature="0"
               style="display:inline;opacity:1;fill:#000000;fill-opacity:1;fill-rule:nonzero;stroke:none;stroke-width:2.87417507;stroke-linecap:round;stroke-linejoin:miter;stroke-miterlimit:4;stroke-dasharray:none;stroke-dashoffset:0;stroke-opacity:1;paint-order:markers stroke fill;filter:url(#filter6008)"
               d="m 359.40702,253.07037 a 7.274633,56.701759 87.827899 0 0 2.52866,-2.28168 7.274633,56.701759 87.827899 0 0 -56.98911,-5.1115 7.274633,56.701759 87.827899 0 0 -55.63174,8.27184 7.274633,56.701759 87.827899 0 1 53.80367,-7.14164 7.274633,56.701759 87.827899 0 1 56.98912,5.1115 7.274633,56.701759 87.827899 0 1 -0.7006,1.15148 z"
               id="path5998"
               transform="matrix(1.2401481,0,0,1.1963204,-284.97919,-167.56306)" /><path
               id="path4241"
               d="m 160.73881,135.19022 a 8.7032253,70.315076 87.907023 0 0 3.13583,-2.72964 8.7032253,70.315076 87.907023 0 0 -70.674941,-6.11496 8.7032253,70.315076 87.907023 0 0 -68.991523,9.89571 8.7032253,70.315076 87.907023 0 1 66.724447,-8.54365 8.7032253,70.315076 87.907023 0 1 70.674937,6.11496 8.7032253,70.315076 87.907023 0 1 -0.86926,1.37758 z"
               style="display:inline;opacity:1;fill:#ff0000;fill-opacity:1;fill-rule:nonzero;stroke:none;stroke-width:3.50085235;stroke-linecap:round;stroke-linejoin:miter;stroke-miterlimit:4;stroke-dasharray:none;stroke-dashoffset:0;stroke-opacity:1;paint-order:markers stroke fill"
               inkscape:connector-curvature="0" /><path
               style="font-style:normal;font-variant:normal;font-weight:normal;font-stretch:normal;font-size:93.59220886px;line-height:1.25;font-family:Maitre-d;-inkscape-font-specification:'Maitre-d, Normal';font-variant-ligatures:normal;font-variant-caps:normal;font-variant-numeric:normal;font-feature-settings:normal;text-align:start;letter-spacing:0px;word-spacing:0px;writing-mode:lr-tb;text-anchor:start;display:inline;opacity:1;fill:#000000;fill-opacity:1;stroke:none;stroke-width:2.36145139;filter:url(#filter4237)"
               d="m 328.96556,184.59189 c -8.17372,0 -14.60036,4.27387 -19.27997,12.82195 -0.50796,1.27899 -1.01596,2.55799 -1.52393,3.83698 l -8.34885,-0.49558 c -6.92058,-0.26928 -11.92828,0.847 -15.02285,3.34915 -2.77314,2.2649 -6.00337,7.44693 -9.69037,15.54582 l -13.83688,30.65136 c -0.95777,2.14821 -3.15197,4.77904 -6.58254,7.89254 -3.17148,2.87382 -5.9015,4.82828 -8.18968,5.86321 1.3093,0.0509 4.38928,0.3269 9.24026,0.82785 0.99514,0.10117 2.20971,0.17933 3.6437,0.23513 6.29711,0.24502 10.95103,-0.60419 13.96143,-2.54764 3.01039,-1.94346 5.78174,-5.76928 8.31422,-11.47786 l 2.32647,-5.17333 c 1.24522,0.0389 2.75408,0.12231 4.55735,0.25425 2.55818,0.1248 4.18054,0.18707 4.86688,0.18707 4.36764,0 7.29992,-0.12507 8.7974,-0.37465 2.4334,-0.43677 4.49222,-1.3725 6.17688,-2.80758 2.75101,-2.43007 5.46834,-6.38237 8.15196,-11.84476 -0.10601,0.79032 -0.1633,1.58742 -0.1633,2.39211 0,4.05566 1.6535,7.29985 4.96042,9.73325 3.30693,2.371 7.61194,3.55689 12.91549,3.55689 7.54978,0 14.10148,-2.05935 19.65462,-6.1774 5.61553,-4.18046 8.42325,-9.2655 8.42325,-15.2554 0,-3.68129 -1.99654,-7.70553 -5.98981,-12.07316 -3.93087,-4.43004 -5.89628,-7.23776 -5.89628,-8.42326 0,-1.12311 0.62383,-2.05937 1.87172,-2.8081 1.31029,-0.81113 2.83871,-1.21646 4.58577,-1.21646 0.87352,0 1.65356,0.12455 2.3399,0.37413 0.74874,0.18718 1.49764,0.4991 2.24638,0.93586 -2.99495,2.05903 -4.49223,4.24293 -4.49223,6.55154 0,1.1855 0.37419,2.15289 1.12293,2.90163 0.81113,0.74874 1.8408,1.12293 3.08869,1.12293 2.18383,0 4.24265,-0.84232 6.17689,-2.52698 1.99663,-1.68466 2.99517,-3.5255 2.99517,-5.52214 0,-2.12142 -1.71629,-3.77492 -5.14801,-4.96042 -2.74537,-0.93592 -5.95843,-1.40353 -9.63972,-1.40353 -4.8044,0 -9.26562,0.77952 -13.38368,2.33939 -4.74201,1.80945 -7.11326,4.08729 -7.11326,6.83266 0,1.43509 0.5304,2.77615 1.59112,4.02404 -6.1147,1.43508 -11.04353,4.27446 -14.78722,8.51731 -0.47186,0.54385 -0.91256,1.09178 -1.32395,1.64383 2.623,-6.76515 5.26535,-13.54983 7.93595,-20.36258 3.86848,-8.4233 8.17349,-14.06989 12.91549,-16.94005 z m -24.23935,0.7245 c -2.76649,0.0131 -5.23939,0.94353 -7.41867,2.79053 -2.32215,1.9078 -3.52692,3.98404 -3.61425,6.22856 -0.0558,1.43399 0.36808,2.57407 1.27176,3.42098 0.90611,0.78454 2.13876,1.20747 3.69745,1.26814 2.86798,0.11159 5.46171,-0.75544 7.78143,-2.60088 2.38449,-1.90537 3.62165,-4.01162 3.71141,-6.31848 0.0558,-1.43399 -0.36809,-2.57458 -1.27176,-3.42149 -0.90368,-0.84694 -2.10395,-1.29934 -3.6003,-1.35754 -0.18704,-0.007 -0.37264,-0.0107 -0.55707,-0.01 z m 2.92178,17.22841 c -2.81484,7.08738 -5.62959,14.17488 -8.44444,21.26226 -4.02668,9.84299 -8.90632,16.77627 -14.63735,20.80442 l 5.90196,-13.12375 c 6.40497,-14.20889 12.13133,-23.85391 17.17983,-28.94293 z m 28.08924,11.99668 c 1.49748,0 2.58943,0.37419 3.27577,1.12293 0.68634,0.68634 1.0294,1.59094 1.0294,2.71405 0,1.87184 -0.84232,3.49419 -2.52698,4.86688 -1.68466,1.37269 -3.58779,2.05931 -5.70921,2.05931 -1.12311,0 -2.08998,-0.34358 -2.90112,-1.02992 -0.81113,-0.68634 -1.21698,-1.59094 -1.21698,-2.71404 0,-1.68466 0.87398,-3.27536 2.62103,-4.77284 1.74706,-1.49747 3.55625,-2.24637 5.42809,-2.24637 z"
               id="path4223"
               inkscape:connector-curvature="0"
               transform="matrix(1.2401481,0,0,1.1963204,-284.97919,-167.56306)" /><path
               inkscape:connector-curvature="0"
               id="path4188"
               d="m 122.98682,53.267977 c -10.13662,0 -18.10658,5.112963 -23.910004,15.339146 -0.629991,1.530061 -1.259982,3.06025 -1.889846,4.590311 L 86.833099,72.604537 c -8.582513,-0.322226 -14.792825,1.013081 -18.630552,4.006695 -3.439114,2.709539 -7.445093,8.908921 -12.017555,18.597759 L 39.025309,131.87786 c -1.187437,2.56995 -3.908998,5.7172 -8.16341,9.44202 -3.933053,3.4379 -7.318714,5.7761 -10.156346,7.01422 1.623722,0.0644 5.443377,0.39054 11.459218,0.98988 1.234528,0.11601 2.740397,0.21396 4.518754,0.28099 7.809343,0.29258 13.580951,-0.72308 17.314316,-3.04775 3.733238,-2.32506 7.170189,-6.90197 10.310853,-13.73124 l 2.885104,-6.18894 c 1.544305,0.0516 3.415442,0.14565 5.651847,0.30418 3.172482,0.14952 5.184507,0.22427 6.035568,0.22427 5.416523,0 9.053034,-0.14951 10.910172,-0.44854 3.01772,-0.522 5.571029,-1.64194 7.660181,-3.35876 3.411624,-2.90713 6.781504,-7.63535 10.109634,-14.17011 -0.13109,0.94606 -0.20236,1.89895 -0.20236,2.86163 0,4.85196 2.05059,8.73299 6.15164,11.64411 4.10105,2.8365 9.43994,4.2552 16.01717,4.2552 9.36282,0 17.48792,-2.46362 24.37455,-7.3902 6.96413,-5.00109 10.44614,-11.08447 10.44614,-18.25027 0,-4.404069 -2.47606,-9.218263 -7.4283,-14.443361 -4.87485,-5.299725 -7.31222,-8.658744 -7.31222,-10.076928 0,-1.343556 0.77381,-2.463745 2.32117,-3.359406 1.62499,-0.970546 3.52044,-1.455304 5.6871,-1.455304 1.08307,0 2.05059,0.149513 2.90178,0.447251 0.92907,0.224269 1.85726,0.596763 2.78583,1.120059 -3.71415,2.463229 -5.57103,5.075971 -5.57103,7.837711 0,1.418313 0.46454,2.575622 1.3926,3.471283 1.00544,0.89579 2.28286,1.343427 3.83047,1.343427 2.7082,0 5.26151,-1.007925 7.66018,-3.02313 2.47618,-2.015334 3.71453,-4.217559 3.71453,-6.606161 0,-2.537985 -2.12848,-4.51607 -6.38429,-5.934254 -3.40462,-1.120059 -7.38935,-1.679058 -11.95468,-1.679058 -5.95819,0 -11.49079,0.933168 -16.59779,2.798602 -5.8808,2.164719 -8.82152,4.889725 -8.82152,8.174116 0,1.716823 0.65799,3.321125 1.97333,4.813936 -7.58318,1.716824 -13.69562,5.113608 -18.33834,10.18945 -0.58544,0.650898 -1.13144,1.306178 -1.64192,1.966613 3.25292,-8.093301 6.52976,-16.209931 9.84173,-24.360202 4.79748,-10.076928 10.13637,-16.832086 16.01717,-20.265733 z m -30.060371,0.867434 c -3.430842,0.01289 -6.497689,1.129082 -9.200287,3.338267 -2.879759,2.282396 -4.373919,4.766247 -4.482227,7.451426 -0.06363,1.715534 0.456903,3.079326 1.577269,4.092536 1.123802,0.938323 2.652325,1.444606 4.585316,1.517171 3.556713,0.134047 6.773358,-0.903523 9.650189,-3.111549 2.95714,-2.279431 4.491391,-4.799114 4.602626,-7.55892 0.06364,-1.715535 -0.456903,-3.079971 -1.577142,-4.09318 -1.121256,-1.013081 -2.609181,-1.554421 -4.464918,-1.624022 -0.231633,-0.0084 -0.461993,-0.01289 -0.691081,-0.01199 z m 3.623403,20.610644 c -3.490787,8.478813 -6.981446,16.957755 -10.47236,25.436435 -4.993601,11.77545 -11.045079,20.06982 -18.152395,24.88879 L 75.24432,109.37111 C 83.187424,92.372624 90.289014,80.834205 96.549852,74.746055 Z m 34.834808,14.351844 c 1.85714,0 3.2113,0.447251 4.06249,1.343427 0.85144,0.821034 1.27666,1.903199 1.27666,3.246884 0,2.239346 -1.0449,4.180182 -3.13392,5.822377 -2.08916,1.642063 -4.44939,2.463483 -7.08021,2.463483 -1.39285,0 -2.59187,-0.41116 -3.59782,-1.23219 -1.00544,-0.821034 -1.50931,-1.903329 -1.50931,-3.246885 0,-2.015334 1.08435,-3.918404 3.2505,-5.709855 2.16666,-1.791451 4.41032,-2.68737 6.73161,-2.68737 z"
               style="font-style:normal;font-variant:normal;font-weight:normal;font-stretch:normal;font-size:93.59220886px;line-height:1.25;font-family:Maitre-d;-inkscape-font-specification:'Maitre-d, Normal';font-variant-ligatures:normal;font-variant-caps:normal;font-variant-numeric:normal;font-feature-settings:normal;text-align:start;letter-spacing:0px;word-spacing:0px;writing-mode:lr-tb;text-anchor:start;display:inline;opacity:1;fill:#ffffff;fill-opacity:1;stroke:none;stroke-width:2.87633562" /></g><ellipse
             ry="88.635422"
             rx="90.714279"
             cy="105.55506"
             cx="103.18749"
             id="path4200"
             style="opacity:1;fill:url(#linearGradient4208);fill-opacity:1;fill-rule:nonzero;stroke:none;stroke-width:0.78060913;stroke-linecap:round;stroke-linejoin:round;stroke-miterlimit:4;stroke-dasharray:none;stroke-dashoffset:9.99999905;stroke-opacity:1;paint-order:normal" /></g></g></g><path
       inkscape:connector-curvature="0"
       id="path24"
       style="fill:#009fe3;fill-opacity:1;fill-rule:nonzero;stroke:none;stroke-width:0.62903112"
       d="m 359.97081,750.22616 c -84.4512,31.02255 -151.09327,0 -151.09327,0 v 27.00115 6.31988 c 79.64729,37.3418 151.09327,0 151.09327,0 z" /><path
       inkscape:connector-curvature="0"
       id="path28"
       style="fill:#1d1d1b;fill-opacity:1;fill-rule:nonzero;stroke:none;stroke-width:0.62903112"
       d="m 187.04683,769.75897 6.89354,-8.90458 -6.89354,-14.07518 21.83114,7.46848 v 22.97976 z" /><path
       inkscape:connector-curvature="0"
       id="path32"
       style="fill:#1d1d1b;fill-opacity:1;fill-rule:nonzero;stroke:none;stroke-width:0.62903112"
       d="m 381.80139,769.75897 -6.89356,-8.90458 6.89356,-14.07518 -21.83053,7.46848 v 22.97976 z" /><path
       inkscape:connector-curvature="0"
       id="path36"
       style="fill:#009fe3;fill-opacity:1;fill-rule:nonzero;stroke:none;stroke-width:0.62903112"
       d="m 473.29038,216.85232 12.35166,7.45087 12.35166,-7.45087 v 185.56291 l -24.70332,-29.78462 z" /><path
       inkscape:connector-curvature="0"
       id="path40"
       style="fill:#009fe3;fill-opacity:1;fill-rule:nonzero;stroke:none;stroke-width:0.62903112"
       d="m 538.35213,216.85232 -12.35166,7.45087 -12.35102,-7.45087 v 185.56291 l 24.70268,-29.78462 z" /><path
       d="m 513.64895,372.68496 h -15.65533 v 29.73052 h 15.65533 z"
       style="fill:#1d1d1b;fill-opacity:1;fill-rule:nonzero;stroke:none;stroke-width:0.62903112"
       id="path42"
       inkscape:connector-curvature="0" /><path
       d="M 119.83082,716.03694 H 58.933689 v 26.42686 h 60.897131 z"
       style="fill:#009fe3;fill-opacity:1;fill-rule:nonzero;stroke:none;stroke-width:0.62903112"
       id="path44"
       inkscape:connector-curvature="0" /><path
       inkscape:connector-curvature="0"
       id="path48"
       style="fill:#1d1d1b;fill-opacity:1;fill-rule:nonzero;stroke:none;stroke-width:0.62903112"
       d="m 137.06558,702.24871 -26.78791,13.78773 H 58.933632 l 21.804107,-13.78773 z" /><path
       d="M 137.06565,666.6297 H 40.549632 v 35.61889 h 96.516018 z"
       style="fill:#009fe3;fill-opacity:1;fill-rule:nonzero;stroke:none;stroke-width:0.62903112"
       id="path50"
       inkscape:connector-curvature="0" /><path
       inkscape:connector-curvature="0"
       id="path54"
       style="fill:#1d1d1b;fill-opacity:1;fill-rule:nonzero;stroke:none;stroke-width:0.62903112"
       d="m 153.72604,651.69279 -33.43867,14.93696 H 40.550129 l 27.500613,-14.93696 z" /><path
       d="M 153.72616,605.15827 H 24.464049 v 46.53445 H 153.72616 Z"
       style="fill:#009fe3;fill-opacity:1;fill-rule:nonzero;stroke:none;stroke-width:0.62903112"
       id="path56"
       inkscape:connector-curvature="0" /><path
       inkscape:connector-curvature="0"
       id="path60"
       style="fill:#1d1d1b;fill-opacity:1;fill-rule:nonzero;stroke:none;stroke-width:0.62903112"
       d="m 116.1681,575.14084 v 30.01799 H 24.463541 Z" /><path
       inkscape:connector-curvature="0"
       id="path64"
       style="fill:#009fe3;fill-opacity:1;fill-rule:nonzero;stroke:none;stroke-width:0.62903112"
       d="m 71.572622,559.19848 44.595778,15.94216 -22.106032,7.23638 z" /><path
       inkscape:connector-curvature="0"
       id="path68"
       style="fill:#1d1d1b;fill-opacity:1;fill-rule:nonzero;stroke:none;stroke-width:0.62903112"
       d="M 119.8305,742.46343 73.628169,769.57655 V 742.46343 Z" /><path
       inkscape:connector-curvature="0"
       id="path72"
       style="fill:#009fe3;fill-opacity:1;fill-rule:nonzero;stroke:none;stroke-width:0.62903112"
       d="m 101.94922,789.71599 -28.320855,-20.1397 12.022043,-7.05456 z" /><path
       inkscape:connector-curvature="0"
       id="path76"
       style="fill:#009fe3;fill-opacity:1;fill-rule:nonzero;stroke:none;stroke-width:0.62903112"
       d="m 372.03543,197.2086 -87.32397,-15.51127 -87.32399,15.51127 v 25.85255 h 174.64796 z" /><path
       inkscape:connector-curvature="0"
       id="path80"
       style="fill:#1d1d1b;fill-opacity:1;fill-rule:nonzero;stroke:none;stroke-width:0.62903112"
       d="m 332.8973,171.2844 39.13831,25.92426 -39.13831,-6.95268 z" /><path
       inkscape:connector-curvature="0"
       id="path84"
       style="fill:#1d1d1b;fill-opacity:1;fill-rule:nonzero;stroke:none;stroke-width:0.62903112"
       d="m 236.52559,171.2844 -39.13768,25.92426 39.13768,-6.95268 z" /><path
       inkscape:connector-curvature="0"
       id="path88"
       style="fill:#009fe3;fill-opacity:1;fill-rule:nonzero;stroke:none;stroke-width:0.62903112"
       d="m 332.8973,171.2844 19.56917,-11.84906 -6.58974,20.44604 z" /><path
       inkscape:connector-curvature="0"
       id="path92"
       style="fill:#009fe3;fill-opacity:1;fill-rule:nonzero;stroke:none;stroke-width:0.62903112"
       d="m 236.52559,171.27031 -19.56917,-11.84906 6.59037,20.44604 z" /><path
       inkscape:connector-curvature="0"
       id="path96"
       style="fill:#009fe3;fill-opacity:1;fill-rule:nonzero;stroke:none;stroke-width:0.62903112"
       d="m 154.87502,204.23045 -47.53965,49.40726 v -34.03876 z" /><path
       inkscape:connector-curvature="0"
       id="path100"
       style="fill:#1d1d1b;fill-opacity:1;fill-rule:nonzero;stroke:none;stroke-width:0.62903112"
       d="m 144.9113,245.88168 -20.93856,20.61649 -16.63724,-12.86053 19.5767,-20.34601 z" /><path
       inkscape:connector-curvature="0"
       id="path104"
       style="fill:#009fe3;fill-opacity:1;fill-rule:nonzero;stroke:none;stroke-width:0.62903112"
       d="M 144.9113,245.88168 24.463801,364.47984 v 44.4876 L 144.9113,289.83083 Z" /><path
       inkscape:connector-curvature="0"
       id="path108"
       style="fill:#009fe3;fill-opacity:1;fill-rule:nonzero;stroke:none;stroke-width:0.62903112"
       d="M 14.697273,447.81784 61.950085,433.16833 V 400.56565 Z" /><path
       inkscape:connector-curvature="0"
       id="path112"
       style="fill:#1d1d1b;fill-opacity:1;fill-rule:nonzero;stroke:none;stroke-width:0.62903112"
       d="M 24.463801,408.96719 45.155784,388.50103 61.949656,400.56585 42.13769,420.3778 Z" /><path
       inkscape:connector-curvature="0"
       id="path116"
       style="fill:#009fe3;fill-opacity:1;fill-rule:nonzero;stroke:none;stroke-width:0.62903112"
       d="m 221.51672,628.10677 125.24072,-5.74495 v 41.36384 L 221.51672,649.36299 Z" /><path
       inkscape:connector-curvature="0"
       id="path120"
       style="fill:#1d1d1b;fill-opacity:1;fill-rule:nonzero;stroke:none;stroke-width:0.62903112"
       d="m 221.51672,628.10708 23.91325,-14.29094 -1.92609,13.28198 z" /><path
       inkscape:connector-curvature="0"
       id="path124"
       style="fill:#009fe3;fill-opacity:1;fill-rule:nonzero;stroke:none;stroke-width:0.62903112"
       d="m 237.53795,618.53278 -8.69637,-9.8871 16.5882,5.17063 z" /><path
       inkscape:connector-curvature="0"
       id="path128"
       style="fill:#1d1d1b;fill-opacity:1;fill-rule:nonzero;stroke:none;stroke-width:0.62903112"
       d="m 346.75751,663.72597 -47.03706,21.18451 7.32696,-25.7387 z" /><path
       inkscape:connector-curvature="0"
       id="path132"
       style="fill:#009fe3;fill-opacity:1;fill-rule:nonzero;stroke:none;stroke-width:0.62903112"
       d="m 323.23885,697.04682 -23.51884,-12.13653 13.19265,-5.94183 z" /><path
       d="M 561.26095,683.54702 H 450.95719 v 33.32105 h 110.30376 z"
       style="fill:#009fe3;fill-opacity:1;fill-rule:nonzero;stroke:none;stroke-width:0.62903112"
       id="path134"
       inkscape:connector-curvature="0" /><path
       inkscape:connector-curvature="0"
       id="path138"
       style="fill:#1d1d1b;fill-opacity:1;fill-rule:nonzero;stroke:none;stroke-width:0.62903112"
       d="m 561.26075,683.54684 h -58.52316 l -71.67307,-38.7068 102.96611,22.99674 z" /><path
       inkscape:connector-curvature="0"
       id="path142"
       style="fill:#009fe3;fill-opacity:1;fill-rule:nonzero;stroke:none;stroke-width:0.62903112"
       d="m 431.06484,608.43134 149.51315,33.82364 v 35.97805 L 431.06484,644.84029 Z" /><path
       inkscape:connector-curvature="0"
       id="path146"
       style="fill:#1d1d1b;fill-opacity:1;fill-rule:nonzero;stroke:none;stroke-width:0.62903112"
       d="M 580.5783,642.25498 484.74856,620.57606 450.95701,600.2445 h 59.47425 z" /><path
       d="M 561.26095,564.62556 H 450.95719 v 35.61887 h 110.30376 z"
       style="fill:#009fe3;fill-opacity:1;fill-rule:nonzero;stroke:none;stroke-width:0.62903112"
       id="path148"
       inkscape:connector-curvature="0" /><path
       inkscape:connector-curvature="0"
       id="path152"
       style="fill:#1d1d1b;fill-opacity:1;fill-rule:nonzero;stroke:none;stroke-width:0.62903112"
       d="m 503.23634,741.57124 -52.27939,-24.70331 h 52.27939 z" /><path
       inkscape:connector-curvature="0"
       id="path156"
       style="fill:#009fe3;fill-opacity:1;fill-rule:nonzero;stroke:none;stroke-width:0.62903112"
       d="m 503.23634,741.57124 -31.88432,11.48989 16.51774,-18.7508 z" /><path
       inkscape:connector-curvature="0"
       id="path160"
       style="fill:#1d1d1b;fill-opacity:1;fill-rule:nonzero;stroke:none;stroke-width:0.62903112"
       d="m 508.83743,540.78408 52.42346,23.84154 h -52.42346 z" /><path
       inkscape:connector-curvature="0"
       id="path164"
       style="fill:#009fe3;fill-opacity:1;fill-rule:nonzero;stroke:none;stroke-width:0.62903112"
       d="m 508.83743,540.78408 32.31585,-11.6333 -16.95932,18.61744 z" /><path
       inkscape:connector-curvature="0"
       id="path168"
       style="fill:#009fe3;fill-opacity:1;fill-rule:nonzero;stroke:none;stroke-width:0.62903112"
       d="m 206.86684,463.68493 153.96605,22.97976 v 36.19319 L 206.86684,498.15457 Z" /><path
       inkscape:connector-curvature="0"
       id="path172"
       style="fill:#1d1d1b;fill-opacity:1;fill-rule:nonzero;stroke:none;stroke-width:0.62903112"
       d="M 174.40788,445.58801 322.57994,469.2182 360.83257,486.66501 224.37246,466.2976 Z" /><path
       inkscape:connector-curvature="0"
       id="path176"
       style="fill:#009fe3;fill-opacity:1;fill-rule:nonzero;stroke:none;stroke-width:0.62903112"
       d="m 174.40788,401.63937 219.74573,34.18219 v 44.81091 L 174.40788,445.58788 Z" /><path
       inkscape:connector-curvature="0"
       id="path180"
       style="fill:#1d1d1b;fill-opacity:1;fill-rule:nonzero;stroke:none;stroke-width:0.62903112"
       d="M 394.15348,435.82206 247.02373,412.93476 206.86702,394.4576 344.71478,415.80378 Z" /><path
       inkscape:connector-curvature="0"
       id="path184"
       style="fill:#009fe3;fill-opacity:1;fill-rule:nonzero;stroke:none;stroke-width:0.62903112"
       d="m 206.86684,359.9882 153.96605,23.55407 v 34.75712 L 206.86684,394.45786 Z" /><path
       inkscape:connector-curvature="0"
       id="path188"
       style="fill:#1d1d1b;fill-opacity:1;fill-rule:nonzero;stroke:none;stroke-width:0.62903112"
       d="m 312.86165,348.49795 47.97117,35.04458 -56.53165,-8.64855 z" /><path
       inkscape:connector-curvature="0"
       id="path192"
       style="fill:#009fe3;fill-opacity:1;fill-rule:nonzero;stroke:none;stroke-width:0.62903112"
       d="m 312.86165,348.49795 43.08738,-4.02139 -23.07412,18.64196 z" /><path
       inkscape:connector-curvature="0"
       id="path196"
       style="fill:#1d1d1b;fill-opacity:1;fill-rule:nonzero;stroke:none;stroke-width:0.62903112"
       d="m 264.54792,507.4097 -9.13542,26.65141 -48.54548,-35.90635 z" /><path
       inkscape:connector-curvature="0"
       id="path200"
       style="fill:#009fe3;fill-opacity:1;fill-rule:nonzero;stroke:none;stroke-width:0.62903112"
       d="m 255.41219,534.06086 -41.93813,5.17064 21.28264,-20.44854 z" /></g></svg>