<?xml version="1.0" encoding="UTF-8" standalone="no"?>
<!-- Created with Inkscape (http://www.inkscape.org/) -->

<svg
   xmlns:dc="http://purl.org/dc/elements/1.1/"
   xmlns:cc="http://creativecommons.org/ns#"
   xmlns:rdf="http://www.w3.org/1999/02/22-rdf-syntax-ns#"
   xmlns:svg="http://www.w3.org/2000/svg"
   xmlns="http://www.w3.org/2000/svg"
   xmlns:xlink="http://www.w3.org/1999/xlink"
   xmlns:sodipodi="http://sodipodi.sourceforge.net/DTD/sodipodi-0.dtd"
   xmlns:inkscape="http://www.inkscape.org/namespaces/inkscape"
   version="1.1"
   id="svg2"
   width="210mm"
   height="297mm"
   viewBox="0 0 793.70076 1122.5197"
   sodipodi:docname="9 scudi.svg"
   inkscape:version="0.92.2 (5c3e80d, 2017-08-06)">
  <metadata
     id="metadata8">
    <rdf:RDF>
      <cc:Work
         rdf:about="">
        <dc:format>image/svg+xml</dc:format>
        <dc:type
           rdf:resource="http://purl.org/dc/dcmitype/StillImage" />
        <dc:title></dc:title>
      </cc:Work>
    </rdf:RDF>
  </metadata>
  <defs
     id="defs6">
    <linearGradient
       inkscape:collect="always"
       id="linearGradient4920">
      <stop
         id="stop4918"
         offset="0"
         style="stop-color:#aa0000;stop-opacity:1" />
      <stop
         id="stop4916"
         offset="1"
         style="stop-color:#2b0000;stop-opacity:1" />
    </linearGradient>
    <radialGradient
       inkscape:collect="always"
       xlink:href="#linearGradient7569"
       id="radialGradient7571"
       cx="105"
       cy="148.5"
       fx="105"
       fy="148.5"
       r="105"
       gradientTransform="matrix(1.1368553,-0.55592064,0.7061365,1.444046,-108.57039,4.1034569)"
       gradientUnits="userSpaceOnUse" />
    <linearGradient
       inkscape:collect="always"
       id="linearGradient7569">
      <stop
         style="stop-color:#ffffff;stop-opacity:1"
         offset="0"
         id="stop7565" />
      <stop
         style="stop-color:#ccc6cc;stop-opacity:1"
         offset="1"
         id="stop7567" />
    </linearGradient>
    <radialGradient
       inkscape:collect="always"
       xlink:href="#linearGradient4920"
       id="radialGradient4922"
       cx="142.1552"
       cy="243.06401"
       fx="142.1552"
       fy="243.06401"
       r="97.707043"
       gradientTransform="matrix(1,0,0,1.1031089,0,-25.062053)"
       gradientUnits="userSpaceOnUse" />
    <radialGradient
       inkscape:collect="always"
       xlink:href="#linearGradient4920"
       id="radialGradient4932"
       cx="402.88202"
       cy="245.49229"
       fx="402.88202"
       fy="245.49229"
       r="99.061928"
       gradientTransform="matrix(1,0,0,1.1133709,0,-27.831681)"
       gradientUnits="userSpaceOnUse" />
    <radialGradient
       inkscape:collect="always"
       xlink:href="#linearGradient4920"
       id="radialGradient4940"
       cx="663.60883"
       cy="245.13342"
       fx="663.60883"
       fy="245.13342"
       r="99.060432"
       gradientTransform="matrix(1,0,0,1.1089283,0,-26.701954)"
       gradientUnits="userSpaceOnUse" />
    <radialGradient
       inkscape:collect="always"
       xlink:href="#linearGradient4920"
       id="radialGradient4948"
       cx="142.1552"
       cy="510.82404"
       fx="142.1552"
       fy="510.82404"
       r="98.432251"
       gradientTransform="matrix(1,0,0,1.1061817,0,-54.240185)"
       gradientUnits="userSpaceOnUse" />
    <radialGradient
       inkscape:collect="always"
       xlink:href="#linearGradient4920"
       id="radialGradient4956"
       cx="402.88202"
       cy="517.00146"
       fx="402.88202"
       fy="517.00146"
       r="98.851051"
       gradientTransform="matrix(1,0,0,1.1140186,0,-58.947762)"
       gradientUnits="userSpaceOnUse" />
    <radialGradient
       inkscape:collect="always"
       xlink:href="#linearGradient4920"
       id="radialGradient4964"
       cx="663.60883"
       cy="511.72003"
       fx="663.60883"
       fy="511.72003"
       r="98.828514"
       gradientTransform="matrix(1,0,0,1.196564,0,-100.58575)"
       gradientUnits="userSpaceOnUse" />
    <radialGradient
       inkscape:collect="always"
       xlink:href="#linearGradient4920"
       id="radialGradient4972"
       cx="142.1552"
       cy="779.3786"
       fx="142.1552"
       fy="779.3786"
       r="98.828285"
       gradientTransform="matrix(1,0,0,1.1115954,0,-86.975066)"
       gradientUnits="userSpaceOnUse" />
    <radialGradient
       inkscape:collect="always"
       xlink:href="#linearGradient4920"
       id="radialGradient4980"
       cx="402.88202"
       cy="777.28094"
       fx="402.88202"
       fy="777.28094"
       r="98.827171"
       gradientTransform="matrix(1,0,0,1.1193372,0,-92.75851)"
       gradientUnits="userSpaceOnUse" />
    <radialGradient
       inkscape:collect="always"
       xlink:href="#linearGradient4920"
       id="radialGradient4988"
       cx="663.60883"
       cy="777.02576"
       fx="663.60883"
       fy="777.02576"
       r="98.828514"
       gradientTransform="matrix(1,0,0,1.1115912,0,-86.709268)"
       gradientUnits="userSpaceOnUse" />
  </defs>
  <sodipodi:namedview
     pagecolor="#ffffff"
     bordercolor="#666666"
     borderopacity="1"
     objecttolerance="10"
     gridtolerance="10"
     guidetolerance="10"
     inkscape:pageopacity="0"
     inkscape:pageshadow="2"
     inkscape:window-width="1600"
     inkscape:window-height="837"
     id="namedview4"
     showgrid="false"
     inkscape:snap-center="true"
     inkscape:snap-object-midpoints="true"
     inkscape:object-nodes="true"
     showguides="true"
     inkscape:guide-bbox="true"
     inkscape:object-paths="true"
     inkscape:snap-bbox="true"
     inkscape:bbox-paths="true"
     inkscape:bbox-nodes="true"
     inkscape:snap-bbox-edge-midpoints="true"
     inkscape:snap-bbox-midpoints="true"
     inkscape:snap-intersection-paths="true"
     inkscape:snap-smooth-nodes="true"
     inkscape:measure-start="0,0"
     inkscape:measure-end="0,0"
     inkscape:zoom="0.35355339"
     inkscape:cx="290.16921"
     inkscape:cy="374.43523"
     inkscape:window-x="-8"
     inkscape:window-y="-8"
     inkscape:window-maximized="1"
     inkscape:current-layer="svg2"
     units="mm"
     inkscape:snap-page="true" />
  <g
     id="g5265"
     transform="matrix(3.7795276,0,0,3.7795276,-40.292331,-44.116986)">
    <path
       id="rect7563"
       d="M 10.660679,11.672619 H 220.66068 V 308.67262 H 10.660679 Z"
       style="opacity:1;fill:url(#radialGradient7571);fill-opacity:1;fill-rule:nonzero;stroke:none;stroke-width:2.64583325;stroke-linecap:round;stroke-linejoin:miter;stroke-miterlimit:4;stroke-dasharray:none;stroke-dashoffset:0;stroke-opacity:1;paint-order:stroke fill markers"
       inkscape:connector-curvature="0" />
    <g
       transform="translate(10.660679,7.7229119)"
       id="g4400">
      <rect
         style="opacity:1;fill:#1a1a1a;fill-opacity:1;fill-rule:nonzero;stroke:none;stroke-width:0.029;stroke-linecap:round;stroke-linejoin:round;stroke-miterlimit:4;stroke-dasharray:none;stroke-dashoffset:0;stroke-opacity:1;paint-order:markers stroke fill"
         id="rect9037"
         width="210"
         height="17.991667"
         x="0"
         y="282.95804" />
      <g
         transform="translate(1.7773437e-6,3.94972)"
         aria-label="Designed by JLS DESIGN"
         style="font-style:normal;font-variant:normal;font-weight:normal;font-stretch:normal;font-size:19.75555611px;line-height:1.25;font-family:Aldhabi;-inkscape-font-specification:'Aldhabi, Normal';font-variant-ligatures:normal;font-variant-caps:normal;font-variant-numeric:normal;font-feature-settings:normal;text-align:start;letter-spacing:0px;word-spacing:0px;writing-mode:lr-tb;text-anchor:start;fill:#ffffff;fill-opacity:1;stroke:none;stroke-width:0.26458332"
         id="text9041">
        <path
           inkscape:connector-curvature="0"
           d="m 40.541229,283.2775 q 0.487136,-0.0965 0.96945,-0.1688 0.482313,-0.0723 0.930864,-0.11576 0.453375,-0.0482 0.858518,-0.0675 0.405144,-0.0241 0.73794,-0.0241 1.114144,0 1.948546,0.24116 0.839225,0.24115 1.393886,0.69935 0.559483,0.4582 0.839225,1.12379 0.279742,0.66559 0.279742,1.50964 0,0.50161 -0.106109,1.02251 -0.101286,0.51607 -0.32315,0.99839 -0.221865,0.47749 -0.578776,0.90192 -0.352089,0.41961 -0.853695,0.73794 -0.501606,0.3135 -1.162375,0.49678 -0.655947,0.17846 -1.490349,0.17846 -0.226687,0 -0.438905,-0.0145 -0.207395,-0.01 -0.424436,-0.0241 -0.221864,-0.0145 -0.463021,-0.0289 -0.236333,-0.01 -0.516075,-0.01 -0.284565,0 -0.56913,0.01 -0.284565,0.0145 -0.516075,0.0289 -0.23151,0.0145 -0.381028,0.0289 -0.149517,0.01 -0.163986,0.01 0,-0.0434 0.01447,-0.12058 0.01929,-0.082 0.110932,-0.16881 0.09646,-0.0868 0.299035,-0.15916 0.207394,-0.0723 0.588422,-0.10129 0.01929,-0.21704 0.02894,-0.5209 0.01447,-0.30868 0.01929,-0.67041 0.0096,-0.36656 0.0096,-0.76688 v -4.01285 q 0,-0.22668 -0.0048,-0.39067 0,-0.16881 -0.0048,-0.30386 l -0.578776,0.0868 q -0.289388,0.0434 -0.578776,0.0965 z m 3.028928,0.15435 q -0.327973,0 -0.72347,0.0289 -0.0096,0.24116 -0.01447,0.55466 -0.0048,0.30868 -0.0048,0.74277 v 2.34886 q 0,0.74759 0,1.24437 0.0048,0.49678 0.0048,0.80547 0.0048,0.30385 0.0096,0.44855 0.0096,0.14469 0.02412,0.19292 0.01447,0.15434 0.08682,0.2508 0.07717,0.0916 0.202571,0.1447 0.130225,0.0482 0.303858,0.0627 0.173633,0.0145 0.38585,0.0145 0.704178,0 1.220253,-0.12058 0.516076,-0.1254 0.877811,-0.33762 0.361735,-0.21704 0.583599,-0.51125 0.226687,-0.29421 0.352089,-0.63665 0.125401,-0.34245 0.168809,-0.71865 0.04341,-0.38103 0.04341,-0.76206 0,-0.99839 -0.236333,-1.70739 -0.236334,-0.71382 -0.689708,-1.16719 -0.448552,-0.45338 -1.104498,-0.6656 -0.655946,-0.21221 -1.490348,-0.21221 z"
           style="font-style:normal;font-variant:normal;font-weight:normal;font-stretch:normal;font-size:19.75555611px;font-family:Aldhabi;-inkscape-font-specification:'Aldhabi, Normal';font-variant-ligatures:normal;font-variant-caps:normal;font-variant-numeric:normal;font-feature-settings:normal;text-align:start;writing-mode:lr-tb;text-anchor:start;fill:#ffffff;stroke-width:0.26458332"
           id="path9043" />
        <path
           inkscape:connector-curvature="0"
           d="m 50.650518,287.9463 q 0.01929,0.55948 0.159163,0.95498 0.144694,0.39067 0.390674,0.64148 0.250803,0.24598 0.593245,0.36173 0.347266,0.11576 0.766879,0.11576 0.168809,0 0.327973,-0.0193 0.159163,-0.0193 0.32315,-0.0675 0.168809,-0.0482 0.352089,-0.1254 0.188102,-0.0772 0.414789,-0.19293 l 0.192925,0.31833 q -1.196137,0.96463 -2.40192,0.96463 -0.424436,0 -0.839226,-0.13023 -0.414789,-0.13022 -0.742762,-0.42443 -0.327973,-0.29904 -0.530545,-0.77653 -0.202572,-0.48231 -0.202572,-1.18167 0,-0.78134 0.250803,-1.36012 0.255627,-0.57878 0.665593,-0.9598 0.414789,-0.38585 0.935688,-0.57396 0.520898,-0.1881 1.056266,-0.1881 0.467844,0 0.786171,0.13505 0.32315,0.13505 0.516075,0.36656 0.192926,0.22668 0.274919,0.53054 0.08682,0.30386 0.08682,0.64148 0,0.21704 -0.03376,0.42443 -0.02894,0.20258 -0.08199,0.40997 z m 2.141471,-0.5209 q 0.02412,-0.0965 0.02894,-0.18328 0.0096,-0.0916 0.0096,-0.15916 0,-0.24598 -0.05788,-0.46302 -0.05788,-0.21704 -0.18328,-0.37621 -0.120578,-0.15916 -0.30868,-0.2508 -0.183279,-0.0916 -0.443728,-0.0916 -0.226688,0 -0.438906,0.082 -0.207394,0.0772 -0.371381,0.26528 -0.163986,0.1881 -0.270095,0.49678 -0.101286,0.30868 -0.115756,0.76688 z"
           style="font-style:normal;font-variant:normal;font-weight:normal;font-stretch:normal;font-size:19.75555611px;font-family:Aldhabi;-inkscape-font-specification:'Aldhabi, Normal';font-variant-ligatures:normal;font-variant-caps:normal;font-variant-numeric:normal;font-feature-settings:normal;text-align:start;writing-mode:lr-tb;text-anchor:start;fill:#ffffff;stroke-width:0.26458332"
           id="path9045" />
        <path
           inkscape:connector-curvature="0"
           d="m 55.521883,288.99774 q 0.03376,0.38103 0.173633,0.6463 0.139871,0.26045 0.342443,0.42926 0.202571,0.16399 0.443728,0.24116 0.241157,0.0723 0.482313,0.0723 0.192926,0 0.352089,-0.0434 0.163987,-0.0482 0.279742,-0.13505 0.115755,-0.0868 0.178456,-0.21222 0.0627,-0.13022 0.0627,-0.29903 0,-0.2074 -0.09646,-0.35692 -0.09646,-0.15434 -0.265272,-0.27491 -0.163987,-0.12541 -0.385851,-0.22669 -0.221864,-0.10611 -0.467844,-0.21704 -0.294211,-0.12058 -0.583599,-0.25563 -0.289388,-0.13505 -0.520899,-0.3135 -0.23151,-0.18328 -0.376204,-0.42926 -0.139871,-0.2508 -0.139871,-0.60772 0,-0.39067 0.173633,-0.70417 0.178456,-0.31833 0.472667,-0.54019 0.299034,-0.22669 0.689708,-0.34727 0.395497,-0.12058 0.834402,-0.12058 0.366558,0 0.665593,0.0868 0.303857,0.082 0.516075,0.22186 0.217041,0.13987 0.332796,0.32315 0.115755,0.17846 0.115755,0.37138 0,0.13987 -0.05788,0.24116 -0.05788,0.0965 -0.154341,0.15916 -0.09646,0.0627 -0.221864,0.0916 -0.120578,0.0289 -0.250803,0.0289 -0.04823,0 -0.110932,-0.005 -0.0627,-0.005 -0.110932,-0.0145 -0.125401,-0.46785 -0.381027,-0.71865 -0.255626,-0.25562 -0.689708,-0.25562 -0.381028,0 -0.602892,0.18327 -0.217041,0.17846 -0.217041,0.49196 0,0.20258 0.09646,0.35692 0.09646,0.15434 0.270096,0.27974 0.173633,0.1254 0.419613,0.24115 0.245979,0.11094 0.545014,0.23152 0.284565,0.1254 0.569129,0.26527 0.284565,0.13505 0.511253,0.32315 0.226687,0.18328 0.366558,0.43408 0.144694,0.2508 0.144694,0.59807 0,0.37138 -0.163987,0.67524 -0.163986,0.30385 -0.467844,0.52572 -0.299034,0.21704 -0.72347,0.33762 -0.424436,0.12058 -0.940511,0.12058 -0.274918,0 -0.549837,-0.0386 -0.274919,-0.0386 -0.496783,-0.12058 -0.217041,-0.082 -0.352089,-0.21704 -0.135047,-0.13505 -0.135047,-0.32797 0,-0.0241 0,-0.0965 0.0048,-0.0723 0.01447,-0.21222 0.0048,-0.13987 0.01447,-0.35209 0.0096,-0.21222 0.02894,-0.51608 z"
           style="font-style:normal;font-variant:normal;font-weight:normal;font-stretch:normal;font-size:19.75555611px;font-family:Aldhabi;-inkscape-font-specification:'Aldhabi, Normal';font-variant-ligatures:normal;font-variant-caps:normal;font-variant-numeric:normal;font-feature-settings:normal;text-align:start;writing-mode:lr-tb;text-anchor:start;fill:#ffffff;stroke-width:0.26458332"
           id="path9047" />
        <path
           inkscape:connector-curvature="0"
           d="m 61.796781,285.3611 q -0.02894,0.34726 -0.04823,0.709 -0.01447,0.35691 -0.02411,0.76205 -0.0096,0.40032 -0.01447,0.86817 0,0.46302 0,1.0225 v 0.32315 q 0,0.17364 0,0.34245 0.0048,0.16881 0.0096,0.3135 0.0048,0.13987 0.01447,0.22186 0.0048,0.1254 0.02412,0.19775 0.02412,0.0723 0.110932,0.12058 0.09164,0.0434 0.270095,0.0723 0.183279,0.0289 0.506429,0.0627 l -0.173633,0.40514 q -0.03859,-0.005 -0.163986,-0.0145 -0.125402,-0.01 -0.308681,-0.0193 -0.178456,-0.005 -0.40032,-0.01 -0.217041,-0.005 -0.448551,-0.005 -0.284565,0 -0.535368,0.01 -0.250803,0.01 -0.438905,0.0193 -0.188102,0.01 -0.308681,0.0193 -0.120578,0.0145 -0.144694,0.0193 0,-0.0338 0.0096,-0.10611 0.01447,-0.0772 0.08682,-0.15916 0.07235,-0.082 0.226687,-0.15916 0.159164,-0.0772 0.448552,-0.11576 0.01929,-0.17845 0.02894,-0.39067 0.0096,-0.21704 0.01447,-0.41961 0.0048,-0.2074 0.0048,-0.38103 v -0.26527 q 0,-0.56431 -0.0048,-0.95981 -0.0048,-0.39549 -0.0096,-0.66077 -0.0048,-0.26527 -0.01447,-0.41961 -0.0048,-0.15434 -0.0096,-0.22669 -0.0096,-0.15916 -0.03376,-0.24598 -0.02412,-0.0868 -0.110932,-0.13022 -0.08682,-0.0434 -0.255626,-0.0482 -0.16881,-0.01 -0.467844,-0.01 l 0.09646,-0.3955 q 0.332797,-0.0338 0.641477,-0.0868 0.313504,-0.0531 0.573953,-0.11093 0.260449,-0.0579 0.458198,-0.11094 0.202571,-0.0579 0.313504,-0.0965 z m -0.221864,-2.3344 v 0.11576 q 0,0.23151 0.05305,0.42443 0.05788,0.19293 0.226687,0.36656 -0.125401,0.20257 -0.347265,0.30386 -0.221864,0.10128 -0.453375,0.10128 -0.139871,0 -0.270095,-0.0386 -0.130225,-0.0434 -0.231511,-0.1254 -0.101286,-0.0868 -0.163986,-0.21704 -0.05788,-0.13023 -0.05788,-0.31351 0,-0.10128 0.01929,-0.22668 0.02412,-0.13023 0.06752,-0.24598 l 1.13826,-0.17364 z"
           style="font-style:normal;font-variant:normal;font-weight:normal;font-stretch:normal;font-size:19.75555611px;font-family:Aldhabi;-inkscape-font-specification:'Aldhabi, Normal';font-variant-ligatures:normal;font-variant-caps:normal;font-variant-numeric:normal;font-feature-settings:normal;text-align:start;writing-mode:lr-tb;text-anchor:start;fill:#ffffff;stroke-width:0.26458332"
           id="path9049" />
        <path
           inkscape:connector-curvature="0"
           d="m 65.554002,285.32251 q 0.226687,0 0.434082,0.0338 0.207395,0.0338 0.467844,0.0723 0.260449,0.0386 0.607715,0.0723 0.352089,0.0338 0.863341,0.0338 h 0.289388 q 0.135047,0 0.303857,-0.01 l -0.163986,0.55948 q -0.163987,0.0145 -0.284565,0.0193 -0.115755,0 -0.159164,0 -0.135047,0 -0.274918,-0.005 -0.135048,-0.005 -0.361735,-0.0338 l -0.01929,0.0289 q 0.202572,0.33279 0.294211,0.66076 0.09164,0.32798 0.09164,0.63183 0,0.43409 -0.16881,0.81511 -0.163986,0.37621 -0.467844,0.65595 -0.299034,0.27974 -0.718647,0.44373 -0.419612,0.15916 -0.921218,0.15916 -0.352089,0 -0.655947,-0.0868 -0.13987,0.13987 -0.212217,0.24115 -0.06752,0.10129 -0.06752,0.19775 0,0.11093 0.09164,0.17846 0.09164,0.0675 0.255626,0.11093 0.16881,0.0386 0.40032,0.0627 0.236334,0.0193 0.516076,0.0386 0.294211,0.0193 0.602891,0.0434 0.313504,0.0241 0.607715,0.082 0.299035,0.053 0.564307,0.14951 0.265272,0.0916 0.463021,0.25563 0.202571,0.15916 0.318327,0.3955 0.115755,0.24115 0.115755,0.57877 0,0.33762 -0.120578,0.65595 -0.120579,0.31833 -0.33762,0.59324 -0.212218,0.27975 -0.516075,0.50643 -0.299034,0.23151 -0.665593,0.3955 -0.361735,0.16399 -0.776524,0.25563 -0.409967,0.0916 -0.853695,0.0916 -0.506429,0 -0.916395,-0.12058 -0.409967,-0.11576 -0.699355,-0.32315 -0.289388,-0.20257 -0.448551,-0.48232 -0.15434,-0.27491 -0.15434,-0.59324 0,-0.39067 0.245979,-0.78135 0.250803,-0.38585 0.776525,-0.77652 -0.274919,-0.082 -0.419613,-0.2074 -0.139871,-0.12058 -0.139871,-0.33762 0,-0.13022 0.05788,-0.27009 0.05788,-0.1447 0.173633,-0.30386 0.120578,-0.16399 0.303857,-0.35209 0.183279,-0.19292 0.429259,-0.41961 -0.506429,-0.24598 -0.762055,-0.709 -0.250803,-0.46785 -0.250803,-1.05627 0,-0.55466 0.202572,-0.9598 0.202571,-0.40515 0.520898,-0.67042 0.32315,-0.26527 0.728293,-0.39067 0.405144,-0.13023 0.810287,-0.13023 z m -1.239546,5.89387 q -0.217041,0.26045 -0.303857,0.53537 -0.08199,0.27492 -0.08199,0.48231 0,0.28939 0.130224,0.53055 0.135048,0.24116 0.371382,0.41479 0.236333,0.17363 0.564306,0.26527 0.332797,0.0965 0.733117,0.0965 0.434082,0 0.742762,-0.11093 0.313504,-0.10611 0.516076,-0.28456 0.202571,-0.17364 0.299034,-0.40032 0.09646,-0.22669 0.09646,-0.4582 0,-0.27492 -0.130225,-0.45338 -0.125402,-0.17363 -0.347266,-0.27491 -0.217041,-0.10129 -0.516075,-0.14952 -0.299034,-0.0482 -0.641477,-0.0772 -0.337619,-0.0241 -0.704177,-0.0434 -0.366558,-0.0241 -0.728294,-0.0723 z m 2.247581,-3.49195 q 0,-0.29903 -0.06752,-0.62218 -0.0627,-0.32797 -0.212218,-0.59807 -0.144694,-0.27009 -0.390674,-0.44373 -0.241156,-0.17845 -0.598068,-0.17845 -0.265273,0 -0.443729,0.10128 -0.178456,0.10129 -0.284565,0.2701 -0.106109,0.16881 -0.149517,0.38585 -0.04341,0.21704 -0.04341,0.44855 0,0.29903 0.06752,0.62218 0.07235,0.32315 0.226687,0.59325 0.154341,0.26527 0.40032,0.43891 0.24598,0.16881 0.602892,0.16881 0.260449,0 0.434082,-0.0965 0.173633,-0.10128 0.274919,-0.26527 0.101286,-0.16399 0.139871,-0.3762 0.04341,-0.21705 0.04341,-0.44856 z"
           style="font-style:normal;font-variant:normal;font-weight:normal;font-stretch:normal;font-size:19.75555611px;font-family:Aldhabi;-inkscape-font-specification:'Aldhabi, Normal';font-variant-ligatures:normal;font-variant-caps:normal;font-variant-numeric:normal;font-feature-settings:normal;text-align:start;writing-mode:lr-tb;text-anchor:start;fill:#ffffff;stroke-width:0.26458332"
           id="path9051" />
        <path
           inkscape:connector-curvature="0"
           d="m 70.92215,285.35145 q -0.01447,0.18328 -0.02894,0.43408 -0.0096,0.24598 -0.0096,0.57878 l 0.02894,0.01 q 0.226688,-0.21222 0.463021,-0.40515 0.236334,-0.19292 0.49196,-0.34244 0.260449,-0.14952 0.540191,-0.23633 0.284565,-0.0868 0.602892,-0.0868 0.434082,0 0.728293,0.16881 0.294211,0.16881 0.472667,0.46784 0.178456,0.29422 0.250803,0.69936 0.07717,0.40032 0.07717,0.87299 0,0.17363 -0.0096,0.38585 -0.0096,0.21222 -0.02412,0.4389 -0.0096,0.22187 -0.02412,0.44855 -0.01447,0.22669 -0.02894,0.42444 -0.0096,0.19775 -0.01929,0.36173 -0.0096,0.15917 -0.0096,0.25563 0,0.14469 0.02894,0.23633 0.03376,0.0916 0.135047,0.14952 0.101286,0.0579 0.294212,0.0965 0.197748,0.0338 0.525721,0.0675 l -0.173633,0.40514 q -0.03858,-0.005 -0.168809,-0.0145 -0.125402,-0.01 -0.313504,-0.0193 -0.188102,-0.005 -0.424436,-0.01 -0.23151,-0.005 -0.487136,-0.005 -0.202572,0 -0.376205,0.005 -0.173633,0.005 -0.313503,0.0145 0.04823,-0.42443 0.08199,-0.78135 0.03376,-0.36173 0.05305,-0.6897 0.01929,-0.32798 0.02894,-0.6463 0.0096,-0.31833 0.0096,-0.66077 0,-0.31833 -0.02412,-0.63183 -0.01929,-0.31351 -0.120579,-0.55949 -0.09646,-0.24598 -0.299034,-0.40032 -0.202572,-0.15434 -0.56913,-0.15434 -0.202571,0 -0.395497,0.0482 -0.192925,0.0482 -0.371381,0.13505 -0.173633,0.0868 -0.332796,0.20257 -0.154341,0.11094 -0.289388,0.24116 -0.0096,0.17363 -0.0096,0.35691 -0.0048,0.1881 -0.0048,0.36174 -0.0048,0.17363 -0.0048,0.32315 v 0.91157 q 0,0.27974 0.0048,0.48231 0.0048,0.20257 0.0096,0.35209 0.0048,0.14952 0.01447,0.27974 0.0048,0.12058 0.02412,0.19775 0.02412,0.0723 0.110932,0.12058 0.08682,0.0434 0.265272,0.0723 0.183279,0.0289 0.506429,0.0627 l -0.173633,0.40514 q -0.03858,-0.005 -0.168809,-0.0145 -0.125402,-0.01 -0.308681,-0.0193 -0.183279,-0.005 -0.409966,-0.01 -0.226688,-0.005 -0.458198,-0.005 -0.289388,0 -0.540191,0.01 -0.24598,0.01 -0.434082,0.0193 -0.188102,0.01 -0.303857,0.0193 -0.110933,0.0145 -0.135048,0.0193 0,-0.0338 0.0096,-0.10611 0.01447,-0.0772 0.08682,-0.15916 0.07235,-0.082 0.226688,-0.15916 0.159163,-0.0772 0.448551,-0.11576 0.01929,-0.1881 0.02894,-0.41479 0.0096,-0.23151 0.01447,-0.44855 0.0048,-0.22186 0.0048,-0.40032 v -0.26045 q 0,-0.5209 -0.0048,-0.8971 -0.0048,-0.38103 -0.0096,-0.64148 -0.0048,-0.26527 -0.01447,-0.42443 -0.0048,-0.15917 -0.0096,-0.24598 -0.0096,-0.15917 -0.03376,-0.24116 -0.02412,-0.0868 -0.110933,-0.1254 -0.08682,-0.0434 -0.260449,-0.0482 -0.168809,-0.01 -0.472667,-0.01 l 0.09646,-0.3955 q 0.327973,-0.0338 0.627007,-0.0868 0.303858,-0.0531 0.554661,-0.11093 0.250803,-0.0579 0.443728,-0.11094 0.192925,-0.0579 0.303857,-0.0965 z"
           style="font-style:normal;font-variant:normal;font-weight:normal;font-stretch:normal;font-size:19.75555611px;font-family:Aldhabi;-inkscape-font-specification:'Aldhabi, Normal';font-variant-ligatures:normal;font-variant-caps:normal;font-variant-numeric:normal;font-feature-settings:normal;text-align:start;writing-mode:lr-tb;text-anchor:start;fill:#ffffff;stroke-width:0.26458332"
           id="path9053" />
        <path
           inkscape:connector-curvature="0"
           d="m 77.197045,287.9463 q 0.01929,0.55948 0.159163,0.95498 0.144694,0.39067 0.390674,0.64148 0.250803,0.24598 0.593245,0.36173 0.347266,0.11576 0.766879,0.11576 0.168809,0 0.327973,-0.0193 0.159163,-0.0193 0.32315,-0.0675 0.168809,-0.0482 0.352088,-0.1254 0.188103,-0.0772 0.41479,-0.19293 l 0.192925,0.31833 q -1.196137,0.96463 -2.40192,0.96463 -0.424436,0 -0.839226,-0.13023 -0.414789,-0.13022 -0.742762,-0.42443 -0.327973,-0.29904 -0.530545,-0.77653 -0.202572,-0.48231 -0.202572,-1.18167 0,-0.78134 0.250803,-1.36012 0.255626,-0.57878 0.665593,-0.9598 0.414789,-0.38585 0.935688,-0.57396 0.520898,-0.1881 1.056266,-0.1881 0.467844,0 0.786171,0.13505 0.32315,0.13505 0.516075,0.36656 0.192926,0.22668 0.274919,0.53054 0.08682,0.30386 0.08682,0.64148 0,0.21704 -0.03376,0.42443 -0.02894,0.20258 -0.08199,0.40997 z m 2.141471,-0.5209 q 0.02412,-0.0965 0.02894,-0.18328 0.0096,-0.0916 0.0096,-0.15916 0,-0.24598 -0.05788,-0.46302 -0.05788,-0.21704 -0.183279,-0.37621 -0.120578,-0.15916 -0.30868,-0.2508 -0.183279,-0.0916 -0.443728,-0.0916 -0.226688,0 -0.438906,0.082 -0.207394,0.0772 -0.371381,0.26528 -0.163987,0.1881 -0.270095,0.49678 -0.101286,0.30868 -0.115756,0.76688 z"
           style="font-style:normal;font-variant:normal;font-weight:normal;font-stretch:normal;font-size:19.75555611px;font-family:Aldhabi;-inkscape-font-specification:'Aldhabi, Normal';font-variant-ligatures:normal;font-variant-caps:normal;font-variant-numeric:normal;font-feature-settings:normal;text-align:start;writing-mode:lr-tb;text-anchor:start;fill:#ffffff;stroke-width:0.26458332"
           id="path9055" />
        <path
           inkscape:connector-curvature="0"
           d="m 85.444607,289.93343 q -0.241157,0.23633 -0.467844,0.41961 -0.221864,0.17846 -0.453375,0.29904 -0.226687,0.12057 -0.472667,0.18328 -0.24598,0.0627 -0.525721,0.0627 -0.501606,0 -0.89228,-0.18328 -0.385851,-0.18328 -0.655946,-0.51125 -0.265273,-0.3328 -0.405144,-0.791 -0.139871,-0.4582 -0.139871,-1.00321 0,-0.75241 0.250803,-1.33119 0.250803,-0.57877 0.675239,-0.97427 0.424436,-0.3955 0.983919,-0.59807 0.564307,-0.20257 1.181668,-0.20257 0.467844,0 0.940511,0.11576 -0.0096,-0.47749 -0.0096,-0.83923 -0.0048,-0.35691 -0.0096,-0.63665 0,-0.28457 -0.0048,-0.51125 0,-0.23152 -0.0048,-0.44856 -0.0048,-0.16398 -0.02894,-0.25562 -0.02412,-0.0916 -0.130225,-0.13505 -0.101286,-0.0434 -0.32315,-0.0482 -0.217041,-0.01 -0.607715,-0.01 l 0.09646,-0.39549 q 0.371381,-0.0193 0.713824,-0.0579 0.347265,-0.0434 0.63183,-0.0916 0.289388,-0.0482 0.501606,-0.0965 0.212218,-0.0531 0.32315,-0.0916 l 0.09646,0.0675 q -0.02412,0.28456 -0.03858,0.74276 -0.0096,0.4582 -0.01929,1.02733 -0.0048,0.56431 -0.0096,1.21543 0,0.65112 0,1.32154 v 2.3344 q 0,0.39067 0,0.64147 0.0048,0.24598 0.0096,0.37621 0.0048,0.1254 0.0096,0.19292 0.0096,0.15917 0.03376,0.26045 0.02894,0.10129 0.07717,0.15916 0.04823,0.0579 0.115755,0.082 0.07235,0.0193 0.16881,0.0193 0.274918,0 0.636653,-0.14469 l 0.115755,0.30868 q -0.178456,0.10611 -0.40032,0.19775 -0.221864,0.0868 -0.448551,0.14951 -0.221864,0.0675 -0.429259,0.10611 -0.207395,0.0386 -0.356912,0.0386 -0.361735,0 -0.520898,-0.2074 -0.159164,-0.21222 -0.159164,-0.57395 v -0.17363 z m 0.0096,-0.48231 q 0,-0.35209 0.0048,-0.74759 0,-0.39067 0,-0.81029 0,-0.41479 0.0048,-0.84887 0,-0.43408 0,-0.86334 -0.168809,-0.10611 -0.347265,-0.16881 -0.178456,-0.0627 -0.342443,-0.0965 -0.159163,-0.0338 -0.299034,-0.0434 -0.135048,-0.01 -0.221864,-0.01 -0.463021,0 -0.776525,0.17364 -0.30868,0.16881 -0.496783,0.45337 -0.188102,0.27974 -0.270095,0.65113 -0.08199,0.36655 -0.08199,0.76205 0,0.55466 0.135047,0.95498 0.135048,0.40032 0.361735,0.66077 0.226688,0.25563 0.520899,0.38103 0.294211,0.12058 0.617361,0.12058 0.347266,0 0.6463,-0.13987 0.299034,-0.13988 0.545014,-0.42926 z"
           style="font-style:normal;font-variant:normal;font-weight:normal;font-stretch:normal;font-size:19.75555611px;font-family:Aldhabi;-inkscape-font-specification:'Aldhabi, Normal';font-variant-ligatures:normal;font-variant-caps:normal;font-variant-numeric:normal;font-feature-settings:normal;text-align:start;writing-mode:lr-tb;text-anchor:start;fill:#ffffff;stroke-width:0.26458332"
           id="path9057" />
        <path
           inkscape:connector-curvature="0"
           d="m 87.750061,290.73407 q 0,0 0,0 z"
           style="font-style:normal;font-variant:normal;font-weight:normal;font-stretch:normal;font-size:19.75555611px;font-family:Aldhabi;-inkscape-font-specification:'Aldhabi, Normal';font-variant-ligatures:normal;font-variant-caps:normal;font-variant-numeric:normal;font-feature-settings:normal;text-align:start;writing-mode:lr-tb;text-anchor:start;fill:#ffffff;stroke-width:0.26458332"
           id="path9059" />
        <path
           inkscape:connector-curvature="0"
           d="m 92.602136,286.27749 q 0.188103,-0.18327 0.405144,-0.35691 0.221864,-0.17845 0.467844,-0.3135 0.250803,-0.13987 0.530544,-0.22187 0.284565,-0.082 0.602892,-0.082 0.472667,0 0.848872,0.1881 0.381027,0.18811 0.6463,0.51608 0.265272,0.32315 0.405143,0.76688 0.144694,0.4389 0.144694,0.94051 0,0.41479 -0.09646,0.81511 -0.09646,0.39549 -0.284565,0.74758 -0.188102,0.35209 -0.463021,0.65113 -0.270095,0.29903 -0.622184,0.51607 -0.352089,0.21222 -0.776524,0.3328 -0.424436,0.12058 -0.916396,0.12058 -0.101286,0 -0.265272,-0.01 -0.159164,-0.01 -0.361735,-0.0386 -0.202572,-0.0289 -0.443729,-0.0868 -0.236333,-0.0579 -0.487136,-0.15434 -0.115755,0.0434 -0.270096,0.11575 -0.15434,0.0723 -0.299034,0.17364 l -0.07717,-0.0386 q 0.03858,-0.41961 0.05788,-0.91157 0.02411,-0.49196 0.03376,-1.02733 0.01447,-0.53537 0.01929,-1.09485 0.0048,-0.56431 0.0048,-1.12379 0,-0.64148 -0.0048,-1.24437 0,-0.60771 -0.0048,-1.1045 -0.0048,-0.5016 -0.01447,-0.86334 -0.0048,-0.36173 -0.0096,-0.5209 -0.0048,-0.16398 -0.02894,-0.2508 -0.02412,-0.0916 -0.120578,-0.13022 -0.09164,-0.0386 -0.279742,-0.0434 -0.188102,-0.01 -0.520898,-0.01 l 0.09646,-0.39549 q 0.32315,-0.0193 0.636653,-0.0579 0.318327,-0.0434 0.588423,-0.0916 0.274918,-0.0482 0.487136,-0.0965 0.212218,-0.0531 0.32315,-0.0916 l 0.09646,0.0675 q -0.01929,0.28456 -0.03376,0.63665 -0.0096,0.34727 -0.01929,0.73312 -0.0096,0.38585 -0.01447,0.79582 -0.0048,0.40514 -0.0096,0.80064 0,0.39067 0,0.76205 v 0.67042 z m -0.01929,1.01286 q 0,0.89711 0,1.56752 0.0048,0.67042 0.02894,1.18167 0.159163,0.10128 0.327973,0.16399 0.173633,0.0579 0.327973,0.0868 0.15434,0.0289 0.284565,0.0386 0.130224,0.01 0.207394,0.01 0.477491,0 0.800641,-0.18328 0.327973,-0.18328 0.525721,-0.47749 0.197749,-0.29903 0.284565,-0.67041 0.08682,-0.37621 0.08682,-0.76206 0,-0.39067 -0.08682,-0.75723 -0.08682,-0.37138 -0.270095,-0.65595 -0.183279,-0.28456 -0.477491,-0.45819 -0.289388,-0.17364 -0.699354,-0.17364 -0.409966,0 -0.737939,0.16399 -0.327974,0.15916 -0.602892,0.40514 z"
           style="font-style:normal;font-variant:normal;font-weight:normal;font-stretch:normal;font-size:19.75555611px;font-family:Aldhabi;-inkscape-font-specification:'Aldhabi, Normal';font-variant-ligatures:normal;font-variant-caps:normal;font-variant-numeric:normal;font-feature-settings:normal;text-align:start;writing-mode:lr-tb;text-anchor:start;fill:#ffffff;stroke-width:0.26458332"
           id="path9061" />
        <path
           inkscape:connector-curvature="0"
           d="m 100.79182,285.53473 q 0.0338,0.005 0.15434,0.01 0.12058,0.005 0.28456,0.01 0.16399,0.005 0.35209,0.01 0.1881,0 0.35209,0 0.62701,0 0.95498,-0.0289 0.32797,-0.0289 0.40997,-0.0386 0,0.10611 -0.0482,0.19774 -0.0434,0.0868 -0.15434,0.15917 -0.10611,0.0723 -0.28939,0.1254 -0.18328,0.0482 -0.45338,0.0772 -0.24115,0.63665 -0.46784,1.25884 -0.22187,0.62218 -0.43408,1.21543 -0.21222,0.59324 -0.41962,1.1479 -0.20257,0.55466 -0.40514,1.05627 -0.30868,0.76688 -0.62701,1.40353 -0.318324,0.64148 -0.670412,1.09968 -0.347266,0.45819 -0.742763,0.71382 -0.390674,0.25563 -0.844049,0.25563 -0.405143,0 -0.627007,-0.19293 -0.221864,-0.19292 -0.221864,-0.54984 0,-0.0868 0.01929,-0.19774 0.01447,-0.10611 0.05788,-0.21705 0.188102,0.0531 0.361735,0.0723 0.173633,0.0241 0.32315,0.0241 0.482313,0 0.834402,-0.18328 0.356912,-0.17846 0.631831,-0.50161 0.279742,-0.32315 0.496783,-0.76688 0.221864,-0.4389 0.438904,-0.9598 h -0.01 q -0.0241,0 -0.06752,0.005 -0.04341,0.005 -0.09646,0.01 -0.05788,0.005 -0.110932,0.0145 -0.05788,0.005 -0.101286,0.01 -0.159163,-0.45337 -0.332796,-0.92121 -0.16881,-0.46785 -0.33762,-0.9164 -0.168809,-0.44855 -0.332796,-0.85852 -0.159163,-0.40996 -0.299034,-0.74276 -0.135048,-0.33762 -0.24598,-0.5836 -0.110932,-0.2508 -0.178456,-0.3762 -0.08199,-0.13505 -0.163986,-0.21704 -0.08199,-0.082 -0.197749,-0.12541 -0.110932,-0.0482 -0.270095,-0.0723 -0.159164,-0.0241 -0.390674,-0.0482 l 0.115755,-0.41479 q 0.03376,0.005 0.149517,0.0145 0.115755,0.005 0.289388,0.01 0.173633,0.005 0.390674,0.01 0.221864,0.005 0.458198,0.005 0.217041,0 0.356912,-0.005 0.144694,-0.005 0.245979,-0.0145 0.120579,0.29903 0.299035,0.72829 0.173633,0.43408 0.376204,0.95981 0.207395,0.52089 0.429262,1.11414 0.22668,0.59325 0.44855,1.22025 h 0.0386 q 0.10129,-0.26045 0.21222,-0.5643 0.11575,-0.30868 0.22669,-0.62701 0.11575,-0.31833 0.21704,-0.62701 0.10611,-0.3135 0.18328,-0.58842 0.082,-0.27492 0.1254,-0.49196 0.0482,-0.22186 0.0482,-0.35209 0,-0.0965 -0.0338,-0.15434 -0.0338,-0.0579 -0.13023,-0.0916 -0.0916,-0.0386 -0.26045,-0.0579 -0.16881,-0.0193 -0.43408,-0.0434 z m -2.995169,0.37621 z m 4.610919,0.11575 z m -0.67042,-0.0868 z"
           style="font-style:normal;font-variant:normal;font-weight:normal;font-stretch:normal;font-size:19.75555611px;font-family:Aldhabi;-inkscape-font-specification:'Aldhabi, Normal';font-variant-ligatures:normal;font-variant-caps:normal;font-variant-numeric:normal;font-feature-settings:normal;text-align:start;writing-mode:lr-tb;text-anchor:start;fill:#ffffff;stroke-width:0.26458332"
           id="path9063" />
        <path
           inkscape:connector-curvature="0"
           d="m 103.10692,290.73407 q 0,0 0,0 z"
           style="font-style:normal;font-variant:normal;font-weight:normal;font-stretch:normal;font-size:19.75555611px;font-family:Aldhabi;-inkscape-font-specification:'Aldhabi, Normal';font-variant-ligatures:normal;font-variant-caps:normal;font-variant-numeric:normal;font-feature-settings:normal;text-align:start;writing-mode:lr-tb;text-anchor:start;fill:#ffffff;stroke-width:0.26458332"
           id="path9065" />
        <path
           inkscape:connector-curvature="0"
           d="m 107.168,286.50418 q 0,-0.44373 -0.005,-0.77652 0,-0.3328 -0.005,-0.5836 0,-0.25081 -0.005,-0.42926 0,-0.17846 -0.005,-0.31833 -0.005,-0.13987 -0.01,-0.2508 l -0.01,-0.22187 q -0.01,-0.13504 -0.0338,-0.21221 -0.0241,-0.0772 -0.13023,-0.12058 -0.10611,-0.0434 -0.32315,-0.0675 -0.21704,-0.0289 -0.61254,-0.0627 l 0.16399,-0.42443 q 0.0434,0.01 0.21222,0.0193 0.16881,0.01 0.40032,0.0193 0.23633,0.01 0.5016,0.0145 0.2701,0.005 0.50643,0.005 0.38103,0 0.69936,-0.0145 0.31832,-0.0145 0.54984,-0.0289 0.23151,-0.0145 0.36173,-0.0289 0.13022,-0.0145 0.14469,-0.0145 0,0.0579 -0.0241,0.14469 -0.0193,0.082 -0.13023,0.16881 -0.10611,0.0868 -0.33279,0.15917 -0.22187,0.0723 -0.62219,0.10611 -0.0338,0.50642 -0.0434,1.00803 -0.005,0.49678 -0.005,0.94533 0,0.72347 0.005,1.25884 0.005,0.53055 0.01,0.92122 0.005,0.39068 0.01,0.65595 0.005,0.27009 0.005,0.4582 0,0.68006 -0.0675,1.20096 -0.0675,0.51607 -0.2074,0.91639 -0.13505,0.40032 -0.34244,0.70418 -0.20257,0.30868 -0.47749,0.56431 -0.27492,0.25562 -0.61736,0.48231 -0.34244,0.22669 -0.75723,0.47267 l -0.27975,-0.3955 q 0.2701,-0.19293 0.48714,-0.38103 0.21704,-0.18328 0.38103,-0.40514 0.16399,-0.21704 0.27974,-0.48714 0.12058,-0.27009 0.19293,-0.63665 0.0772,-0.36174 0.11093,-0.8344 0.0338,-0.47749 0.0338,-1.1045 0,-0.29904 -0.005,-0.88746 -0.005,-0.59324 -0.005,-1.53858 z"
           style="font-style:normal;font-variant:normal;font-weight:normal;font-stretch:normal;font-size:19.75555611px;font-family:Aldhabi;-inkscape-font-specification:'Aldhabi, Normal';font-variant-ligatures:normal;font-variant-caps:normal;font-variant-numeric:normal;font-feature-settings:normal;text-align:start;writing-mode:lr-tb;text-anchor:start;fill:#ffffff;stroke-width:0.26458332"
           id="path9067" />
        <path
           inkscape:connector-curvature="0"
           d="m 112.44451,286.82251 v 2.03536 q 0,0.38103 0.005,0.62701 0.005,0.24115 0.0145,0.33279 0.01,0.13988 0.0531,0.22187 0.0482,0.0772 0.15916,0.12058 0.11093,0.0386 0.29903,0.053 0.19293,0.01 0.49679,0.01 0.4389,0 0.76205,-0.0193 0.32797,-0.0241 0.56913,-0.0868 0.24598,-0.0627 0.41961,-0.17846 0.17846,-0.11575 0.32315,-0.30385 0.1447,-0.18811 0.27492,-0.4582 0.13023,-0.27492 0.27974,-0.65113 l 0.43409,0.0965 q -0.11576,0.5209 -0.20258,0.88745 -0.0868,0.36174 -0.15916,0.60772 -0.0724,0.24116 -0.13987,0.38585 -0.0675,0.13987 -0.14952,0.21222 -0.0772,0.0675 -0.17845,0.0868 -0.0965,0.0193 -0.23151,0.0193 -0.10611,0 -0.32798,-0.01 -0.22186,-0.005 -0.51607,-0.0145 -0.29421,-0.01 -0.6463,-0.0193 -0.34727,-0.01 -0.70418,-0.0193 -0.35691,-0.01 -0.709,-0.0193 -0.34727,-0.005 -0.6463,-0.005 -0.8537,0 -1.2926,0.0386 -0.44373,0.0386 -0.54019,0.0386 0,-0.0434 0.0145,-0.12058 0.0193,-0.082 0.11575,-0.16881 0.0965,-0.0868 0.30868,-0.15916 0.21222,-0.0723 0.6029,-0.10129 0.0193,-0.20257 0.0289,-0.51125 0.0145,-0.30868 0.0193,-0.66077 0.01,-0.35209 0.01,-0.71865 v -2.0016 q 0,-0.54983 -0.005,-0.93568 0,-0.39068 -0.005,-0.63666 -0.005,-0.2508 -0.01,-0.41479 -0.005,-0.16398 -0.01,-0.26527 -0.005,-0.10129 -0.01,-0.19293 -0.01,-0.13504 -0.0338,-0.21221 -0.0193,-0.0772 -0.12058,-0.12058 -0.10129,-0.0434 -0.31833,-0.0675 -0.21222,-0.0289 -0.60771,-0.0627 l 0.16398,-0.42443 q 0.0434,0.01 0.2074,0.0193 0.16881,0.01 0.39549,0.0193 0.23151,0.01 0.49679,0.0145 0.26527,0.005 0.5016,0.005 0.38103,0 0.69936,-0.0145 0.31832,-0.0145 0.54983,-0.0289 0.23152,-0.0145 0.36174,-0.0289 0.13022,-0.0145 0.14469,-0.0145 0,0.0579 -0.0193,0.14469 -0.0193,0.082 -0.1254,0.16881 -0.10129,0.0868 -0.32315,0.15917 -0.22186,0.0723 -0.62218,0.10611 -0.0193,0.27491 -0.0338,0.56913 -0.01,0.29421 -0.0145,0.67041 -0.005,0.37621 -0.01,0.86334 0,0.48232 0,1.13344 z"
           style="font-style:normal;font-variant:normal;font-weight:normal;font-stretch:normal;font-size:19.75555611px;font-family:Aldhabi;-inkscape-font-specification:'Aldhabi, Normal';font-variant-ligatures:normal;font-variant-caps:normal;font-variant-numeric:normal;font-feature-settings:normal;text-align:start;writing-mode:lr-tb;text-anchor:start;fill:#ffffff;stroke-width:0.26458332"
           id="path9069" />
        <path
           inkscape:connector-curvature="0"
           d="m 117.78371,288.4479 q 0.0482,0.53055 0.24116,0.89228 0.19775,0.35692 0.47749,0.57396 0.27974,0.21704 0.61736,0.3135 0.33762,0.0916 0.67042,0.0916 0.29421,0 0.54501,-0.0675 0.25563,-0.0675 0.43408,-0.20258 0.18328,-0.13987 0.28457,-0.34244 0.10611,-0.20739 0.10611,-0.48713 0,-0.3328 -0.1447,-0.57396 -0.14469,-0.24598 -0.39067,-0.44373 -0.24598,-0.19774 -0.57395,-0.36655 -0.32798,-0.16881 -0.69453,-0.35209 -0.25081,-0.12058 -0.50161,-0.25081 -0.24598,-0.13022 -0.47267,-0.27974 -0.22668,-0.14951 -0.42443,-0.32315 -0.19293,-0.17363 -0.33762,-0.38585 -0.1447,-0.21222 -0.22669,-0.46302 -0.082,-0.25562 -0.082,-0.55948 0,-0.51608 0.22668,-0.94051 0.23151,-0.42926 0.62701,-0.73312 0.3955,-0.30868 0.92604,-0.47749 0.53537,-0.16881 1.13826,-0.16881 0.3955,0 0.79582,0.0675 0.40514,0.0675 0.71382,0.16399 0.0627,0.0241 0.10129,0.0434 0.0386,0.0193 0.0579,0.0482 0.0193,0.0289 0.0241,0.0724 0.01,0.0434 0.01,0.11575 v 0.62701 q 0,0.24116 0.005,0.51125 0.005,0.2701 0.0145,0.49196 l -0.42443,0.0386 q -0.10129,-0.80064 -0.53055,-1.18649 -0.42926,-0.38585 -1.17684,-0.38585 -0.28939,0 -0.54502,0.0627 -0.2508,0.0579 -0.4389,0.19292 -0.18811,0.13505 -0.29904,0.34727 -0.10611,0.20739 -0.10611,0.5016 0,0.3328 0.13505,0.5836 0.13987,0.24598 0.37621,0.44855 0.23633,0.20258 0.55466,0.37621 0.31832,0.16881 0.68006,0.34244 0.40514,0.19775 0.80064,0.40514 0.3955,0.2074 0.709,0.47267 0.3135,0.26045 0.50643,0.60289 0.19292,0.34245 0.19292,0.80547 0,0.35208 -0.11575,0.65594 -0.11576,0.29904 -0.32315,0.54984 -0.20257,0.24598 -0.48232,0.44373 -0.27974,0.19292 -0.61253,0.32797 -0.32798,0.13023 -0.69936,0.19775 -0.36656,0.0723 -0.74758,0.0723 -0.34245,0 -0.71383,-0.0531 -0.37138,-0.0531 -0.68006,-0.13987 -0.30386,-0.0916 -0.5016,-0.21222 -0.19775,-0.12058 -0.19775,-0.2508 v -0.0145 q 0,-0.0145 0.005,-0.0724 0,-0.053 0.005,-0.16398 0,-0.10611 0.005,-0.29904 0.005,-0.19775 0.0145,-0.49196 0.01,-0.29421 0.0193,-0.71382 z"
           style="font-style:normal;font-variant:normal;font-weight:normal;font-stretch:normal;font-size:19.75555611px;font-family:Aldhabi;-inkscape-font-specification:'Aldhabi, Normal';font-variant-ligatures:normal;font-variant-caps:normal;font-variant-numeric:normal;font-feature-settings:normal;text-align:start;writing-mode:lr-tb;text-anchor:start;fill:#ffffff;stroke-width:0.26458332"
           id="path9071" />
        <path
           inkscape:connector-curvature="0"
           d="m 122.82389,290.73407 q 0,0 0,0 z"
           style="font-style:normal;font-variant:normal;font-weight:normal;font-stretch:normal;font-size:19.75555611px;font-family:Aldhabi;-inkscape-font-specification:'Aldhabi, Normal';font-variant-ligatures:normal;font-variant-caps:normal;font-variant-numeric:normal;font-feature-settings:normal;text-align:start;writing-mode:lr-tb;text-anchor:start;fill:#ffffff;stroke-width:0.26458332"
           id="path9073" />
        <path
           inkscape:connector-curvature="0"
           d="m 125.8914,283.2775 q 0.48714,-0.0965 0.96945,-0.1688 0.48232,-0.0723 0.93087,-0.11576 0.45337,-0.0482 0.85852,-0.0675 0.40514,-0.0241 0.73793,-0.0241 1.11415,0 1.94855,0.24116 0.83923,0.24115 1.39389,0.69935 0.55948,0.4582 0.83922,1.12379 0.27974,0.66559 0.27974,1.50964 0,0.50161 -0.10611,1.02251 -0.10128,0.51607 -0.32315,0.99839 -0.22186,0.47749 -0.57877,0.90192 -0.35209,0.41961 -0.8537,0.73794 -0.5016,0.3135 -1.16237,0.49678 -0.65595,0.17846 -1.49035,0.17846 -0.22669,0 -0.4389,-0.0145 -0.2074,-0.01 -0.42444,-0.0241 -0.22186,-0.0145 -0.46302,-0.0289 -0.23634,-0.01 -0.51608,-0.01 -0.28456,0 -0.56913,0.01 -0.28456,0.0145 -0.51607,0.0289 -0.23151,0.0145 -0.38103,0.0289 -0.14952,0.01 -0.16399,0.01 0,-0.0434 0.0145,-0.12058 0.0193,-0.082 0.11094,-0.16881 0.0965,-0.0868 0.29903,-0.15916 0.20739,-0.0723 0.58842,-0.10129 0.0193,-0.21704 0.0289,-0.5209 0.0145,-0.30868 0.0193,-0.67041 0.01,-0.36656 0.01,-0.76688 v -4.01285 q 0,-0.22668 -0.005,-0.39067 0,-0.16881 -0.005,-0.30386 l -0.57877,0.0868 q -0.28939,0.0434 -0.57878,0.0965 z m 3.02893,0.15435 q -0.32797,0 -0.72347,0.0289 -0.01,0.24116 -0.0145,0.55466 -0.005,0.30868 -0.005,0.74277 v 2.34886 q 0,0.74759 0,1.24437 0.005,0.49678 0.005,0.80547 0.005,0.30385 0.01,0.44855 0.01,0.14469 0.0241,0.19292 0.0145,0.15434 0.0868,0.2508 0.0772,0.0916 0.20257,0.1447 0.13023,0.0482 0.30386,0.0627 0.17363,0.0145 0.38585,0.0145 0.70418,0 1.22025,-0.12058 0.51608,-0.1254 0.87781,-0.33762 0.36174,-0.21704 0.5836,-0.51125 0.22669,-0.29421 0.35209,-0.63665 0.1254,-0.34245 0.16881,-0.71865 0.0434,-0.38103 0.0434,-0.76206 0,-0.99839 -0.23634,-1.70739 -0.23633,-0.71382 -0.6897,-1.16719 -0.44855,-0.45338 -1.1045,-0.6656 -0.65595,-0.21221 -1.49035,-0.21221 z"
           style="font-style:normal;font-variant:normal;font-weight:normal;font-stretch:normal;font-size:19.75555611px;font-family:Aldhabi;-inkscape-font-specification:'Aldhabi, Normal';font-variant-ligatures:normal;font-variant-caps:normal;font-variant-numeric:normal;font-feature-settings:normal;text-align:start;writing-mode:lr-tb;text-anchor:start;fill:#ffffff;stroke-width:0.26458332"
           id="path9075" />
        <path
           inkscape:connector-curvature="0"
           d="m 137.10037,287.02026 v 1.86173 q 0,0.36173 0.005,0.60289 0.005,0.24115 0.0145,0.33279 0.01,0.13988 0.0531,0.22187 0.0482,0.0772 0.15916,0.12058 0.11093,0.0386 0.30386,0.053 0.19292,0.01 0.49678,0.01 0.45337,0 0.78617,-0.0193 0.3328,-0.0241 0.57878,-0.0868 0.24598,-0.0627 0.42443,-0.17846 0.18328,-0.11575 0.32798,-0.30385 0.14469,-0.19293 0.27491,-0.46303 0.13023,-0.27009 0.27975,-0.6463 l 0.43408,0.0965 q -0.11576,0.5209 -0.20257,0.88745 -0.0868,0.36174 -0.15917,0.60772 -0.0723,0.24116 -0.13987,0.38585 -0.0675,0.13987 -0.14952,0.21222 -0.0772,0.0675 -0.17845,0.0868 -0.0965,0.0193 -0.23151,0.0193 -0.10611,0 -0.3328,-0.01 -0.22669,-0.005 -0.52572,-0.0145 -0.29903,-0.01 -0.65595,-0.0193 -0.35208,-0.01 -0.71864,-0.0193 -0.36174,-0.01 -0.71383,-0.0193 -0.35209,-0.005 -0.65112,-0.005 -0.85369,0 -1.2926,0.0386 -0.44373,0.0386 -0.54019,0.0386 0,-0.0434 0.0145,-0.12058 0.0193,-0.082 0.11575,-0.16881 0.0965,-0.0868 0.30868,-0.15916 0.21222,-0.0723 0.6029,-0.10129 0.0193,-0.20257 0.0289,-0.51125 0.0145,-0.30868 0.0193,-0.66077 0.01,-0.35209 0.01,-0.71865 v -2.0016 q 0,-0.54983 -0.005,-0.93568 0,-0.39068 -0.005,-0.63666 -0.005,-0.2508 -0.01,-0.41479 -0.005,-0.16398 -0.01,-0.26527 -0.005,-0.10129 -0.01,-0.19293 -0.01,-0.13504 -0.0338,-0.21221 -0.0193,-0.0772 -0.12058,-0.12058 -0.10129,-0.0434 -0.31833,-0.0675 -0.21222,-0.0289 -0.60771,-0.0627 l 0.16398,-0.42443 q 0.12058,0.0193 0.57878,0.0386 0.46302,0.0193 1.21543,0.0193 0.3762,0 0.78135,-0.005 0.40996,-0.005 0.80546,-0.0145 0.40032,-0.01 0.75723,-0.0193 0.36174,-0.01 0.6463,-0.0193 0.27974,-0.01 0.45338,-0.0145 0.17845,-0.005 0.20739,-0.005 0.0675,0 0.13987,0.0482 0.0724,0.0434 0.0772,0.19292 0.01,0.27974 0.01,0.69453 0,0.41479 0.0193,0.85852 l -0.42443,0.0482 q -0.0627,-0.29903 -0.12541,-0.51125 -0.0627,-0.21222 -0.15434,-0.34726 -0.0916,-0.13988 -0.23151,-0.21705 -0.13504,-0.082 -0.35209,-0.12057 -0.21704,-0.0386 -0.52572,-0.0482 -0.30868,-0.01 -0.74276,-0.01 h -0.87781 q -0.0145,0.26045 -0.0241,0.54984 -0.01,0.28938 -0.0145,0.63665 -0.005,0.34726 -0.01,0.7717 0,0.41961 0,0.94533 0.5836,-0.0434 1.06109,-0.0772 0.47749,-0.0338 0.82475,-0.0579 0.34727,-0.0241 0.55466,-0.0338 0.2074,-0.0145 0.25081,-0.0145 0.14951,0 0.20739,0.12057 0.0627,0.11576 0.0627,0.26045 0,0.13505 -0.0338,0.24598 -0.0338,0.10611 -0.0627,0.18328 -0.3762,-0.0193 -0.73312,-0.0338 -0.35691,-0.0193 -0.709,-0.0338 -0.34726,-0.0145 -0.70417,-0.0241 -0.35209,-0.0145 -0.71865,-0.0241 z"
           style="font-style:normal;font-variant:normal;font-weight:normal;font-stretch:normal;font-size:19.75555611px;font-family:Aldhabi;-inkscape-font-specification:'Aldhabi, Normal';font-variant-ligatures:normal;font-variant-caps:normal;font-variant-numeric:normal;font-feature-settings:normal;text-align:start;writing-mode:lr-tb;text-anchor:start;fill:#ffffff;stroke-width:0.26458332"
           id="path9077" />
        <path
           inkscape:connector-curvature="0"
           d="m 142.63251,288.4479 q 0.0482,0.53055 0.24115,0.89228 0.19775,0.35692 0.47749,0.57396 0.27975,0.21704 0.61736,0.3135 0.33762,0.0916 0.67042,0.0916 0.29421,0 0.54501,-0.0675 0.25563,-0.0675 0.43409,-0.20258 0.18328,-0.13987 0.28456,-0.34244 0.10611,-0.20739 0.10611,-0.48713 0,-0.3328 -0.14469,-0.57396 -0.1447,-0.24598 -0.39068,-0.44373 -0.24598,-0.19774 -0.57395,-0.36655 -0.32797,-0.16881 -0.69453,-0.35209 -0.2508,-0.12058 -0.50161,-0.25081 -0.24598,-0.13022 -0.47266,-0.27974 -0.22669,-0.14951 -0.42444,-0.32315 -0.19293,-0.17363 -0.33762,-0.38585 -0.14469,-0.21222 -0.22669,-0.46302 -0.082,-0.25562 -0.082,-0.55948 0,-0.51608 0.22669,-0.94051 0.23151,-0.42926 0.627,-0.73312 0.3955,-0.30868 0.92605,-0.47749 0.53536,-0.16881 1.13826,-0.16881 0.39549,0 0.79581,0.0675 0.40515,0.0675 0.71383,0.16399 0.0627,0.0241 0.10128,0.0434 0.0386,0.0193 0.0579,0.0482 0.0193,0.0289 0.0241,0.0724 0.01,0.0434 0.01,0.11575 v 0.62701 q 0,0.24116 0.005,0.51125 0.005,0.2701 0.0145,0.49196 l -0.42443,0.0386 q -0.10129,-0.80064 -0.53055,-1.18649 -0.42925,-0.38585 -1.17684,-0.38585 -0.28939,0 -0.54501,0.0627 -0.25081,0.0579 -0.43891,0.19292 -0.1881,0.13505 -0.29903,0.34727 -0.10611,0.20739 -0.10611,0.5016 0,0.3328 0.13504,0.5836 0.13988,0.24598 0.37621,0.44855 0.23633,0.20258 0.55466,0.37621 0.31833,0.16881 0.68006,0.34244 0.40514,0.19775 0.80064,0.40514 0.3955,0.2074 0.709,0.47267 0.31351,0.26045 0.50643,0.60289 0.19293,0.34245 0.19293,0.80547 0,0.35208 -0.11576,0.65594 -0.11575,0.29904 -0.32315,0.54984 -0.20257,0.24598 -0.48231,0.44373 -0.27974,0.19292 -0.61254,0.32797 -0.32797,0.13023 -0.69935,0.19775 -0.36656,0.0723 -0.74759,0.0723 -0.34244,0 -0.71382,-0.0531 -0.37139,-0.0531 -0.68007,-0.13987 -0.30385,-0.0916 -0.5016,-0.21222 -0.19775,-0.12058 -0.19775,-0.2508 v -0.0145 q 0,-0.0145 0.005,-0.0724 0,-0.053 0.005,-0.16398 0,-0.10611 0.005,-0.29904 0.005,-0.19775 0.0145,-0.49196 0.01,-0.29421 0.0193,-0.71382 z"
           style="font-style:normal;font-variant:normal;font-weight:normal;font-stretch:normal;font-size:19.75555611px;font-family:Aldhabi;-inkscape-font-specification:'Aldhabi, Normal';font-variant-ligatures:normal;font-variant-caps:normal;font-variant-numeric:normal;font-feature-settings:normal;text-align:start;writing-mode:lr-tb;text-anchor:start;fill:#ffffff;stroke-width:0.26458332"
           id="path9079" />
        <path
           inkscape:connector-curvature="0"
           d="m 150.37363,286.79357 v 0.97427 q 0,0.41479 0,0.7283 0.005,0.30868 0.005,0.52572 0.005,0.21704 0.005,0.3762 0.005,0.15434 0.01,0.2701 0.005,0.11575 0.01,0.21704 0.005,0.13505 0.0289,0.21704 0.0289,0.0772 0.13987,0.13022 0.11093,0.0482 0.34727,0.0772 0.23633,0.0289 0.66076,0.0579 l -0.19292,0.43408 q -0.0531,-0.005 -0.21704,-0.0193 -0.16399,-0.01 -0.3955,-0.0193 -0.23151,-0.01 -0.50643,-0.0193 -0.27009,-0.01 -0.53537,-0.01 -0.32797,0 -0.627,0.01 -0.29421,0.0145 -0.53055,0.0289 -0.23151,0.0145 -0.3762,0.0289 -0.14952,0.01 -0.17846,0.01 0,-0.0434 0.0145,-0.12058 0.0193,-0.082 0.11576,-0.16881 0.0965,-0.0868 0.30868,-0.15916 0.21221,-0.0723 0.60289,-0.10129 0.0193,-0.20257 0.0289,-0.50643 0.0145,-0.30868 0.0193,-0.66077 0.01,-0.35691 0.01,-0.73311 v -2.05948 q 0,-0.54019 -0.005,-0.90193 0,-0.36173 -0.005,-0.57877 -0.005,-0.22187 -0.01,-0.36656 -0.005,-0.14952 -0.01,-0.26527 -0.005,-0.11093 -0.01,-0.26528 -0.01,-0.13504 -0.0338,-0.21221 -0.0193,-0.0772 -0.1254,-0.12058 -0.10129,-0.0434 -0.31833,-0.0675 -0.21222,-0.0289 -0.60289,-0.0627 l 0.16399,-0.42443 q 0.0434,0.01 0.20739,0.0193 0.16881,0.01 0.3955,0.0193 0.23151,0.01 0.49678,0.0145 0.26527,0.005 0.50161,0.005 0.38102,0 0.69935,-0.0145 0.31833,-0.0145 0.54984,-0.0289 0.23151,-0.0145 0.36173,-0.0289 0.13023,-0.0145 0.1447,-0.0145 0,0.0579 -0.0193,0.14469 -0.0193,0.082 -0.1254,0.16881 -0.10128,0.0868 -0.32315,0.15917 -0.22186,0.0723 -0.62218,0.10611 -0.0193,0.27491 -0.0338,0.56913 -0.01,0.29421 -0.0145,0.67041 -0.005,0.37138 -0.01,0.8537 0,0.47749 0,1.11414 z"
           style="font-style:normal;font-variant:normal;font-weight:normal;font-stretch:normal;font-size:19.75555611px;font-family:Aldhabi;-inkscape-font-specification:'Aldhabi, Normal';font-variant-ligatures:normal;font-variant-caps:normal;font-variant-numeric:normal;font-feature-settings:normal;text-align:start;writing-mode:lr-tb;text-anchor:start;fill:#ffffff;stroke-width:0.26458332"
           id="path9081" />
        <path
           inkscape:connector-curvature="0"
           d="m 158.82859,285.17782 q -0.1447,-0.84405 -0.70418,-1.24919 -0.55948,-0.40997 -1.6061,-0.40997 -0.75724,0 -1.28296,0.2074 -0.5209,0.20257 -0.84405,0.58842 -0.32315,0.38585 -0.46784,0.94051 -0.13987,0.55466 -0.13987,1.25401 0,0.49196 0.0675,0.96463 0.0724,0.47267 0.22187,0.8971 0.14951,0.41962 0.38585,0.77653 0.23633,0.35691 0.57395,0.61736 0.33762,0.25563 0.77653,0.40032 0.44372,0.14469 0.99838,0.14469 0.12541,0 0.28939,-0.01 0.16399,-0.01 0.33762,-0.0289 0.17363,-0.0241 0.34244,-0.0579 0.16881,-0.0338 0.30868,-0.0868 0,-0.39549 -0.005,-0.709 0,-0.3135 -0.005,-0.55466 -0.005,-0.24598 -0.0145,-0.42443 -0.005,-0.18328 -0.0145,-0.31833 -0.01,-0.13505 -0.0338,-0.21222 -0.0241,-0.0772 -0.14952,-0.12057 -0.12058,-0.0434 -0.3762,-0.0675 -0.25081,-0.0241 -0.71383,-0.0627 l 0.15434,-0.42444 q 0.0434,0.01 0.24116,0.0193 0.19775,0.01 0.46302,0.0193 0.2701,0.005 0.56913,0.0145 0.29903,0.005 0.54501,0.005 0.37139,0 0.67042,-0.0145 0.29903,-0.0145 0.51125,-0.0289 0.21222,-0.0145 0.32798,-0.0289 0.11575,-0.0145 0.1254,-0.0145 0,0.0579 -0.0193,0.14469 -0.0193,0.082 -0.11575,0.16881 -0.0916,0.0868 -0.29904,0.15916 -0.20257,0.0724 -0.56913,0.10611 -0.0289,0.49196 -0.0289,1.26366 0,0.19293 0,0.36174 0.005,0.16881 0.01,0.34244 0.005,0.17363 0.0145,0.35691 0.01,0.18328 0.0241,0.40515 -0.16881,0.0145 -0.47749,0.0772 -0.30868,0.0627 -0.709,0.13022 -0.3955,0.0675 -0.8537,0.12058 -0.4582,0.0579 -0.92604,0.0579 -0.95016,0 -1.69774,-0.25563 -0.74759,-0.26045 -1.26849,-0.74759 -0.5209,-0.48713 -0.79581,-1.18166 -0.27492,-0.69936 -0.27492,-1.57717 0,-0.68971 0.16398,-1.27331 0.16881,-0.58359 0.46785,-1.05144 0.30385,-0.47267 0.71864,-0.82958 0.41962,-0.35691 0.92122,-0.59807 0.50161,-0.24115 1.06592,-0.36173 0.56913,-0.12058 1.16719,-0.12058 0.29422,0 0.59807,0.0289 0.30868,0.0241 0.58842,0.0723 0.27975,0.0434 0.51126,0.10611 0.23633,0.0627 0.38585,0.13022 0.0579,0.0241 0.10128,0.0482 0.0434,0.0193 0.0724,0.0531 0.0289,0.0338 0.0434,0.082 0.0193,0.0482 0.0241,0.1254 0.005,0.082 0.005,0.26045 0.005,0.17846 0.005,0.40514 0.005,0.22187 0.01,0.46785 0,0.24598 0.01,0.45819 z"
           style="font-style:normal;font-variant:normal;font-weight:normal;font-stretch:normal;font-size:19.75555611px;font-family:Aldhabi;-inkscape-font-specification:'Aldhabi, Normal';font-variant-ligatures:normal;font-variant-caps:normal;font-variant-numeric:normal;font-feature-settings:normal;text-align:start;writing-mode:lr-tb;text-anchor:start;fill:#ffffff;stroke-width:0.26458332"
           id="path9083" />
        <path
           inkscape:connector-curvature="0"
           d="m 168.3398,286.18103 v 2.45015 q 0,0.34245 0.005,0.67524 0.005,0.3328 0.0145,0.68006 0.01,0.34727 0.0289,0.74759 -0.0965,0.01 -0.21222,0.0289 -0.11093,0.0193 -0.22669,0.0434 -0.11093,0.0241 -0.21704,0.0482 -0.10611,0.0241 -0.18328,0.0434 -1.17684,-1.59164 -2.3971,-3.09646 -1.21543,-1.50481 -2.48391,-2.97105 l -0.0289,0.01 q -0.0145,0.2701 -0.0193,0.5209 -0.005,0.2508 -0.01,0.53537 0,0.27974 0,0.61736 V 287.3 q 0,0.61254 0,1.04662 0.005,0.43408 0.005,0.73794 0.005,0.29903 0.01,0.48713 0.005,0.18811 0.0145,0.31351 0.005,0.13505 0.0338,0.21704 0.0338,0.0772 0.15434,0.13022 0.12058,0.0482 0.35691,0.0772 0.24116,0.0289 0.66077,0.0579 l -0.19292,0.43408 q -0.0482,-0.005 -0.19293,-0.0193 -0.13987,-0.01 -0.34244,-0.0193 -0.19775,-0.01 -0.44373,-0.0193 -0.24115,-0.01 -0.49196,-0.01 -0.30386,0 -0.56913,0.01 -0.26527,0.0145 -0.46784,0.0289 -0.20257,0.0145 -0.32797,0.0289 -0.12541,0.01 -0.1447,0.01 0,-0.0434 0.0193,-0.12058 0.0193,-0.082 0.13023,-0.16881 0.11575,-0.0868 0.35209,-0.15916 0.24115,-0.0723 0.68488,-0.10129 0.0338,-0.32315 0.0531,-0.6463 0.0241,-0.32797 0.0338,-0.71864 0.0145,-0.39068 0.0145,-0.87781 0.005,-0.49196 0.005,-1.14309 0,-0.91639 -0.005,-1.61575 -0.005,-0.70417 -0.0434,-1.24919 -0.16881,-0.16399 -0.29421,-0.25562 -0.1254,-0.0965 -0.27974,-0.14952 -0.15434,-0.0579 -0.37138,-0.0868 -0.21222,-0.0289 -0.54984,-0.0579 l 0.16398,-0.42443 q 0.0579,0.01 0.24116,0.0193 0.18328,0.01 0.42926,0.0193 0.24598,0.005 0.52572,0.0145 0.27974,0.005 0.53055,0.005 0.17845,0 0.35691,-0.005 0.17845,-0.005 0.27974,-0.0145 0.53537,0.6029 1.13826,1.30707 0.60771,0.70418 1.22025,1.44212 0.61736,0.73794 1.20579,1.47588 0.58842,0.73311 1.09485,1.38906 h 0.0386 q 0.0193,-0.32797 0.0289,-0.63183 0.01,-0.30386 0.0145,-0.55948 0.005,-0.25563 0.005,-0.45338 v -0.3135 q 0,-0.51125 -0.005,-0.88746 0,-0.38103 -0.005,-0.65594 0,-0.27492 -0.01,-0.46302 -0.005,-0.19293 -0.0145,-0.3328 -0.005,-0.1447 -0.0145,-0.2508 -0.01,-0.10611 -0.0193,-0.21705 -0.0145,-0.13504 -0.0434,-0.21221 -0.0241,-0.0772 -0.13987,-0.12058 -0.11093,-0.0482 -0.34726,-0.0723 -0.23634,-0.0289 -0.6656,-0.0579 l 0.1254,-0.42443 q 0.0338,0.01 0.19293,0.0193 0.16399,0.01 0.38103,0.0193 0.21704,0.01 0.4582,0.0145 0.24597,0.005 0.44372,0.005 0.31351,0 0.59325,-0.0145 0.27974,-0.0145 0.48714,-0.0289 0.21221,-0.0145 0.33761,-0.0289 0.12541,-0.0145 0.13505,-0.0145 0,0.0579 -0.0193,0.14469 -0.0145,0.082 -0.1254,0.16881 -0.10611,0.0868 -0.34244,0.15917 -0.23151,0.0723 -0.66077,0.10611 -0.0338,0.33279 -0.0531,0.69935 -0.0193,0.36173 -0.0289,0.709 -0.01,0.34727 -0.0145,0.65595 0,0.30868 0,0.53054 z"
           style="font-style:normal;font-variant:normal;font-weight:normal;font-stretch:normal;font-size:19.75555611px;font-family:Aldhabi;-inkscape-font-specification:'Aldhabi, Normal';font-variant-ligatures:normal;font-variant-caps:normal;font-variant-numeric:normal;font-feature-settings:normal;text-align:start;writing-mode:lr-tb;text-anchor:start;fill:#ffffff;stroke-width:0.26458332"
           id="path9085" />
      </g>
    </g>
  </g>
  <path
     style="opacity:1;fill:url(#radialGradient4932);fill-opacity:1.0;fill-rule:nonzero;stroke:none;stroke-width:3;stroke-linecap:square;stroke-linejoin:round;stroke-miterlimit:4;stroke-dasharray:none;stroke-dashoffset:9.99999905;stroke-opacity:1;paint-order:stroke fill markers"
     d="m 382.82852,135.2825 c -22.37405,0.69087 -50.25553,5.64906 -70.47064,13.02 23.09043,56.97763 -8.78582,74.97119 -8.53633,116.15765 1.76224,44.80599 37.90816,61.5732 57.58613,70.95103 19.67803,9.3779 20.73895,3.14241 41.47437,20.37379 20.73536,-17.23138 21.79635,-10.99589 41.47432,-20.37379 19.67796,-9.37783 55.82389,-26.14504 57.58612,-70.95103 0.24975,-41.18646 -31.62675,-59.18002 -8.53632,-116.15765 -20.21512,-7.37094 -48.0966,-12.32913 -70.47064,-13.02 -7.458,-0.23026 -14.3089,0.0139 -20.05348,0.80066 -5.74463,-0.78648 -12.59554,-1.03095 -20.05353,-0.80066 z"
     id="rect4180"
     inkscape:connector-curvature="0" />
  <path
     style="opacity:1;fill:url(#radialGradient4922);fill-opacity:1;fill-rule:nonzero;stroke:none;stroke-width:3;stroke-linecap:square;stroke-linejoin:round;stroke-miterlimit:4;stroke-dasharray:none;stroke-dashoffset:9.99999905;stroke-opacity:1;paint-order:stroke fill markers"
     d="m 65.624327,135.2825 -20.84188,36.10372 c 24.386215,46.36741 -1.460898,58.13318 -0.295787,90.91833 1.762171,44.80598 29.789025,61.9621 57.58612,69.55911 19.14423,5.23216 29.89347,5.74642 40.08242,18.98185 10.18894,-13.23543 20.93818,-13.74969 40.08241,-18.98185 27.7971,-7.59701 55.82395,-24.75313 57.58612,-69.55911 1.16524,-32.78515 -24.68187,-44.55092 -0.29579,-90.91833 L 218.68613,135.2825 h -76.53106 z"
     id="rect4170"
     inkscape:connector-curvature="0" />
  <path
     style="opacity:1;fill:url(#radialGradient4940);fill-opacity:1.0;fill-rule:nonzero;stroke:none;stroke-width:3;stroke-linecap:square;stroke-linejoin:round;stroke-miterlimit:4;stroke-dasharray:none;stroke-dashoffset:9.99999905;stroke-opacity:1;paint-order:stroke fill markers"
     d="m 663.60886,135.2825 c -31.14397,0.10911 -64.32401,4.42212 -64.32401,4.42212 -0.0126,51.72973 -31.83292,71.73155 -34.73643,123.9549 1.76211,44.80595 37.90803,61.57313 57.58606,70.95102 19.67797,9.37791 20.73896,3.1424 41.47438,20.37379 20.73542,-17.23139 21.79634,-10.99588 41.47431,-20.37379 19.67803,-9.37789 55.82395,-26.14507 57.58612,-70.95102 -2.90356,-52.22335 -34.72381,-72.22517 -34.73648,-123.9549 6e-5,0 -33.17998,-4.31301 -64.32395,-4.42212 z"
     id="rect4192"
     inkscape:connector-curvature="0" />
  <path
     style="opacity:1;fill:url(#radialGradient4980);fill-opacity:1.0;fill-rule:nonzero;stroke:none;stroke-width:3;stroke-linecap:square;stroke-linejoin:round;stroke-miterlimit:4;stroke-dasharray:none;stroke-dashoffset:9.99999905;stroke-opacity:1;paint-order:stroke fill markers"
     d="m 314.19276,666.66034 a 98.828531,153.80834 0 0 0 -0.0126,0.0372 h -9.73114 c -0.0505,21.07366 -0.54175,41.38173 -0.27119,60.7641 a 98.828531,153.80834 0 0 0 -0.12298,6.62702 98.828531,153.80834 0 0 0 2.3897,33.13514 c 2.49028,21.25289 7.42299,40.85253 17.08488,58.2513 0.003,0.005 0.006,0.008 0.0126,0.012 a 98.828531,153.80834 0 0 0 79.33952,62.41477 98.828531,153.80834 0 0 0 79.35182,-62.42707 98.828531,153.80834 0 0 0 0.0505,-0.0986 c 9.79017,-17.66946 14.6909,-37.61742 17.1342,-59.24903 a 98.828531,153.80834 0 0 0 2.29112,-32.03884 98.828531,153.80834 0 0 0 -0.14758,-4.64379 c 0.33931,-19.97483 -0.19677,-40.95331 -0.24659,-62.74732 h -9.66958 a 98.828531,153.80834 0 0 0 -0.0126,-0.0372 h -88.75042 z"
     id="path4239"
     inkscape:connector-curvature="0" />
  <path
     style="opacity:1;fill:url(#radialGradient4972);fill-opacity:1.0;fill-rule:nonzero;stroke:none;stroke-width:3;stroke-linecap:square;stroke-linejoin:round;stroke-miterlimit:4;stroke-dasharray:none;stroke-dashoffset:9.99999905;stroke-opacity:1;paint-order:stroke fill markers"
     d="m 142.1552,669.52156 -66.233259,0.0246 -32.494624,32.49462 c -0.854566,83.43765 1.546038,152.47982 98.727883,187.19492 97.18184,-34.7151 99.58244,-103.75727 98.72788,-187.19492 l -32.49463,-32.49462 z"
     id="path4247"
     inkscape:connector-curvature="0" />
  <path
     style="opacity:1;fill:url(#radialGradient4988);fill-opacity:1.0;fill-rule:nonzero;stroke:none;stroke-width:3;stroke-linecap:square;stroke-linejoin:round;stroke-miterlimit:4;stroke-dasharray:none;stroke-dashoffset:9.99999905;stroke-opacity:1;paint-order:stroke fill markers"
     d="m 663.60885,667.16885 -98.43222,0.0366 c -0.22389,97.8607 -11.13036,180.53946 98.43222,219.67722 109.56264,-39.13776 98.65611,-121.81652 98.43222,-219.67722 z"
     id="rect4231"
     inkscape:connector-curvature="0" />
  <path
     style="opacity:1;fill:url(#radialGradient4956);fill-opacity:1.0;fill-rule:nonzero;stroke:none;stroke-width:3;stroke-linecap:square;stroke-linejoin:round;stroke-miterlimit:4;stroke-dasharray:none;stroke-dashoffset:9.99999905;stroke-opacity:1;paint-order:stroke fill markers"
     d="m 332.04187,406.87955 -28.0109,36.79353 c 7.98883,97.89325 13.08779,154.00359 98.85105,183.45029 85.76334,-29.4467 90.86222,-85.55704 98.85106,-183.45029 l -28.0109,-36.79353 a 138.71369,29.9358 0 0 1 -65.913,3.62146 138.71369,29.9358 0 0 1 -4.92716,-0.0372 138.71369,29.9358 0 0 1 -4.92715,0.0372 138.71369,29.9358 0 0 1 -65.913,-3.62146 z"
     id="rect4210"
     inkscape:connector-curvature="0" />
  <path
     style="opacity:1;fill:url(#radialGradient4948);fill-opacity:1.0;fill-rule:nonzero;stroke:none;stroke-width:3.0829649;stroke-linecap:square;stroke-linejoin:round;stroke-miterlimit:4;stroke-dasharray:none;stroke-dashoffset:9.99999905;stroke-opacity:1;paint-order:stroke fill markers"
     d="m 142.15523,401.94009 c -50.087642,0.37828 -72.985778,11.73895 -98.432285,11.73895 9.733661,77.39825 -24.582544,168.44862 98.432285,206.02897 123.01482,-37.58035 88.69856,-128.63072 98.43222,-206.02897 -25.44651,0 -48.34458,-11.36067 -98.43222,-11.73895 z"
     id="rect4225"
     inkscape:connector-curvature="0" />
  <path
     inkscape:connector-curvature="0"
     id="path4260"
     d="m 663.60885,393.46539 -98.43222,16.83211 c -0.22389,97.8607 -11.13036,180.53946 98.43222,219.67718 109.56264,-39.13772 98.65611,-121.81648 98.43222,-219.67718 z"
     style="opacity:1;fill:url(#radialGradient4964);fill-opacity:1.0;fill-rule:nonzero;stroke:none;stroke-width:3;stroke-linecap:square;stroke-linejoin:round;stroke-miterlimit:4;stroke-dasharray:none;stroke-dashoffset:9.99999905;stroke-opacity:1;paint-order:stroke fill markers"
     sodipodi:nodetypes="ccccc" />
</svg>
